<svg width="1512" height="670" viewBox="0 0 1512 670" fill="none" xmlns="http://www.w3.org/2000/svg">
<path fill-rule="evenodd" clip-rule="evenodd" d="M-65.0354 0H-63.5275V81.4866H26.1066V0H27.6145V81.4866H117.249V0H118.757V81.4866H208.391V0H209.899V81.4866H299.534V0H301.042V81.4866H390.677V0H392.184V81.4866H481.819V0H483.326V81.4866H572.961V0H574.469V81.4866H664.104V0H665.612V81.4866H755.246V0H756.754V81.4866H846.388V0H847.896V81.4866H937.531V0H939.039V81.4866H1028.67V0H1030.18V81.4866H1119.82V0H1121.32V81.4866H1210.96V0H1212.47V81.4866H1302.1V0H1303.61V81.4866H1393.24V0H1394.75V81.4866H1484.39V0H1485.89V81.4866H1575.53V0H1577.04V81.4866H1666V82.9956H1577.04V153.919H1666V155.428H1577.04V226.352H1666V227.861H1577.04V298.784H1666V300.293H1577.04V371.216H1666V372.725H1577.04V443.648H1666V445.157H1577.04V516.081H1666V517.59H1577.04V588.513H1666V590.022H1577.04V670H1575.53V590.022H1485.89V670H1484.39V590.022H1394.75V670H1393.24V590.022H1303.61V670H1302.1V590.022H1212.47V670H1210.96V590.022H1121.32V670H1119.82V590.022H1030.18V670H1028.67V590.022H939.039V670H937.531V590.022H847.896V670H846.388V590.022H756.754V670H755.246V590.022H665.612V670H664.104V590.022H574.469V670H572.961V590.022H483.326V670H481.819V590.022H392.184V670H390.677V590.022H301.042V670H299.534V590.022H209.899V670H208.391V590.022H118.757V670H117.249V590.022H27.6145V670H26.1066V590.022H-63.5275V670H-65.0354V590.022H-154V588.513H-65.0354V517.59H-154V516.081H-65.0354V445.157H-154V443.648H-65.0354V372.725H-154V371.216H-65.0354V300.293H-154V298.784H-65.0354V227.861H-154V226.352H-65.0354V155.428H-154V153.919H-65.0354V82.9956H-154V81.4866H-65.0354V0ZM-63.5275 588.513H26.1066V517.59H-63.5275V588.513ZM27.6145 588.513H117.249V517.59H27.6145V588.513ZM118.757 588.513H208.391V517.59H118.757V588.513ZM209.899 588.513H299.534V517.59H209.899V588.513ZM301.042 588.513H390.677V517.59H301.042V588.513ZM392.184 588.513H481.819V517.59H392.184V588.513ZM483.326 588.513H572.961V517.59H483.326V588.513ZM574.469 588.513H664.104V517.59H574.469V588.513ZM665.612 588.513H755.246V517.59H665.612V588.513ZM756.754 588.513H846.388V517.59H756.754V588.513ZM847.896 588.513H937.531V517.59H847.896V588.513ZM939.039 588.513H1028.67V517.59H939.039V588.513ZM1030.18 588.513H1119.82V517.59H1030.18V588.513ZM1121.32 588.513H1210.96V517.59H1121.32V588.513ZM1212.47 588.513H1302.1V517.59H1212.47V588.513ZM1303.61 588.513H1393.24V517.59H1303.61V588.513ZM1394.75 588.513H1484.39V517.59H1394.75V588.513ZM1485.89 588.513H1575.53V517.59H1485.89V588.513ZM1575.53 445.157V516.081H1485.89V445.157H1575.53ZM1484.39 445.157V516.081H1394.75V445.157H1484.39ZM1393.24 445.157V516.081H1303.61V445.157H1393.24ZM1302.1 445.157V516.081H1212.47V445.157H1302.1ZM1210.96 445.157V516.081H1121.32V445.157H1210.96ZM1119.82 445.157V516.081H1030.18V445.157H1119.82ZM1028.67 445.157V516.081H939.039V445.157H1028.67ZM937.531 445.157V516.081H847.896V445.157H937.531ZM846.388 445.157V516.081H756.754V445.157H846.388ZM755.246 445.157V516.081H665.612V445.157H755.246ZM664.104 445.157V516.081H574.469V445.157H664.104ZM572.961 445.157V516.081H483.326V445.157H572.961ZM481.819 445.157V516.081H392.184V445.157H481.819ZM390.677 445.157V516.081H301.042V445.157H390.677ZM299.534 445.157V516.081H209.899V445.157H299.534ZM208.391 445.157V516.081H118.757V445.157H208.391ZM117.249 445.157V516.081H27.6145V445.157H117.249ZM26.1066 445.157V516.081H-63.5275V445.157H26.1066ZM-63.5275 443.648H26.1066V372.725H-63.5275V443.648ZM27.6145 443.648H117.249V372.725H27.6145V443.648ZM118.757 443.648H208.391V372.725H118.757V443.648ZM209.899 443.648H299.534V372.725H209.899V443.648ZM301.042 443.648H390.677V372.725H301.042V443.648ZM392.184 443.648H481.819V372.725H392.184V443.648ZM483.326 443.648H572.961V372.725H483.326V443.648ZM574.469 443.648H664.104V372.725H574.469V443.648ZM665.612 443.648H755.246V372.725H665.612V443.648ZM756.754 443.648H846.388V372.725H756.754V443.648ZM847.896 443.648H937.531V372.725H847.896V443.648ZM939.039 443.648H1028.67V372.725H939.039V443.648ZM1030.18 443.648H1119.82V372.725H1030.18V443.648ZM1121.32 443.648H1210.96V372.725H1121.32V443.648ZM1212.47 443.648H1302.1V372.725H1212.47V443.648ZM1303.61 443.648H1393.24V372.725H1303.61V443.648ZM1394.75 443.648H1484.39V372.725H1394.75V443.648ZM1485.89 443.648H1575.53V372.725H1485.89V443.648ZM1575.53 300.293V371.216H1485.89V300.293H1575.53ZM1484.39 300.293V371.216H1394.75V300.293H1484.39ZM1393.24 300.293V371.216H1303.61V300.293H1393.24ZM1302.1 300.293V371.216H1212.47V300.293H1302.1ZM1210.96 300.293V371.216H1121.32V300.293H1210.96ZM1119.82 300.293V371.216H1030.18V300.293H1119.82ZM1028.67 300.293V371.216H939.039V300.293H1028.67ZM937.531 300.293V371.216H847.896V300.293H937.531ZM846.388 300.293V371.216H756.754V300.293H846.388ZM755.246 300.293V371.216H665.612V300.293H755.246ZM664.104 300.293V371.216H574.469V300.293H664.104ZM572.961 300.293V371.216H483.326V300.293H572.961ZM481.819 300.293V371.216H392.184V300.293H481.819ZM390.677 300.293V371.216H301.042V300.293H390.677ZM299.534 300.293V371.216H209.899V300.293H299.534ZM208.391 300.293V371.216H118.757V300.293H208.391ZM117.249 300.293V371.216H27.6145V300.293H117.249ZM26.1066 300.293V371.216H-63.5275V300.293H26.1066ZM-63.5275 298.784H26.1066V227.861H-63.5275V298.784ZM27.6145 298.784H117.249V227.861H27.6145V298.784ZM118.757 298.784H208.391V227.861H118.757V298.784ZM209.899 298.784H299.534V227.861H209.899V298.784ZM301.042 298.784H390.677V227.861H301.042V298.784ZM392.184 298.784H481.819V227.861H392.184V298.784ZM483.326 298.784H572.961V227.861H483.326V298.784ZM574.469 298.784H664.104V227.861H574.469V298.784ZM665.612 298.784H755.246V227.861H665.612V298.784ZM756.754 298.784H846.388V227.861H756.754V298.784ZM847.896 298.784H937.531V227.861H847.896V298.784ZM939.039 298.784H1028.67V227.861H939.039V298.784ZM1030.18 298.784H1119.82V227.861H1030.18V298.784ZM1121.32 298.784H1210.96V227.861H1121.32V298.784ZM1212.47 298.784H1302.1V227.861H1212.47V298.784ZM1303.61 298.784H1393.24V227.861H1303.61V298.784ZM1394.75 298.784H1484.39V227.861H1394.75V298.784ZM1485.89 298.784H1575.53V227.861H1485.89V298.784ZM1575.53 155.428V226.352H1485.89V155.428H1575.53ZM1484.39 155.428V226.352H1394.75V155.428H1484.39ZM1393.24 155.428V226.352H1303.61V155.428H1393.24ZM1302.1 155.428V226.352H1212.47V155.428H1302.1ZM1210.96 155.428V226.352H1121.32V155.428H1210.96ZM1119.82 155.428V226.352H1030.18V155.428H1119.82ZM1028.67 155.428V226.352H939.039V155.428H1028.67ZM937.531 155.428V226.352H847.896V155.428H937.531ZM846.388 155.428V226.352H756.754V155.428H846.388ZM755.246 155.428V226.352H665.612V155.428H755.246ZM664.104 155.428V226.352H574.469V155.428H664.104ZM572.961 155.428V226.352H483.326V155.428H572.961ZM481.819 155.428V226.352H392.184V155.428H481.819ZM390.677 155.428V226.352H301.042V155.428H390.677ZM299.534 155.428V226.352H209.899V155.428H299.534ZM208.391 155.428V226.352H118.757V155.428H208.391ZM117.249 155.428V226.352H27.6145V155.428H117.249ZM26.1066 155.428V226.352H-63.5275V155.428H26.1066ZM-63.5275 153.919H26.1066V82.9956H-63.5275V153.919ZM27.6145 153.919H117.249V82.9956H27.6145V153.919ZM118.757 153.919H208.391V82.9956H118.757V153.919ZM209.899 153.919H299.534V82.9956H209.899V153.919ZM301.042 153.919H390.677V82.9956H301.042V153.919ZM392.184 153.919H481.819V82.9956H392.184V153.919ZM483.326 153.919H572.961V82.9956H483.326V153.919ZM574.469 153.919H664.104V82.9956H574.469V153.919ZM665.612 153.919H755.246V82.9956H665.612V153.919ZM756.754 153.919H846.388V82.9956H756.754V153.919ZM847.896 153.919H937.531V82.9956H847.896V153.919ZM939.039 153.919H1028.67V82.9956H939.039V153.919ZM1030.18 153.919H1119.82V82.9956H1030.18V153.919ZM1121.32 153.919H1210.96V82.9956H1121.32V153.919ZM1212.47 153.919H1302.1V82.9956H1212.47V153.919ZM1303.61 153.919H1393.24V82.9956H1303.61V153.919ZM1394.75 153.919H1484.39V82.9956H1394.75V153.919ZM1485.89 153.919H1575.53V82.9956H1485.89V153.919Z" fill="url(#paint0_radial_2345_111743)"/>
<defs>
<radialGradient id="paint0_radial_2345_111743" cx="0" cy="0" r="1" gradientUnits="userSpaceOnUse" gradientTransform="translate(755.928 356.935) rotate(89.9894) scale(387.565 1244.99)">
<stop stop-color="#262626"/>
<stop offset="1" stop-color="#1A1A1A"/>
</radialGradient>
</defs>
</svg>
