<svg width="24" height="24" viewBox="0 0 24 24" fill="none" xmlns="http://www.w3.org/2000/svg">
<path d="M12 24C18.6274 24 24 18.6274 24 12C24 5.37258 18.6274 0 12 0C5.37258 0 0 5.37258 0 12C0 18.6274 5.37258 24 12 24Z" fill="#E84142"/>
<path d="M16.2331 12.3119C16.6488 11.5938 17.3197 11.5938 17.7355 12.3119L20.3244 16.8568C20.7402 17.5749 20.4 18.1607 19.5685 18.1607H14.3528C13.5307 18.1607 13.1906 17.5749 13.5969 16.8568L16.2331 12.3119ZM11.2252 3.56226C11.641 2.84415 12.3024 2.84415 12.7181 3.56226L13.2945 4.60163L14.6551 6.99219C14.9858 7.6725 14.9858 8.47565 14.6551 9.15596L10.0914 17.0646C9.67561 17.7071 8.98584 18.1134 8.22049 18.1607H4.43151C3.60002 18.1607 3.25986 17.5843 3.67561 16.8568L11.2252 3.56226Z" fill="white"/>
</svg>
