<svg width="24" height="24" viewBox="0 0 24 24" fill="none" xmlns="http://www.w3.org/2000/svg">
<path d="M12 24C18.6274 24 24 18.6274 24 12C24 5.37258 18.6274 0 12 0C5.37258 0 0 5.37258 0 12C0 18.6274 5.37258 24 12 24Z" fill="#F3BA2F"/>
<path d="M12 4L13.982 6.02377L8.99102 10.9999L7.00894 9.02371L12 4Z" fill="white"/>
<path d="M15.0089 7L16.991 9.02377L8.99103 16.9998L7.00894 15.0236L15.0089 7Z" fill="white"/>
<path d="M5.98208 10L7.96417 12.0238L5.98208 13.9999L4 12.0238L5.98208 10Z" fill="white"/>
<path d="M18.0179 10L20 12.0238L12 19.9998L10.0179 18.0236L18.0179 10Z" fill="white"/>
</svg>
