<svg width="24" height="24" viewBox="0 0 24 24" fill="none" xmlns="http://www.w3.org/2000/svg">
<g clip-path="url(#clip0_2340_132573)">
<path d="M12 24C18.6274 24 24 18.6274 24 12C24 5.37258 18.6274 0 12 0C5.37258 0 0 5.37258 0 12C0 18.6274 5.37258 24 12 24Z" fill="#C3A634"/>
<g clip-path="url(#clip1_2340_132573)">
<path d="M12 24C18.6274 24 24 18.6274 24 12C24 5.37258 18.6274 0 12 0C5.37258 0 0 5.37258 0 12C0 18.6274 5.37258 24 12 24Z" fill="#988430"/>
<path d="M12 23.6156C18.4151 23.6156 23.6156 18.4151 23.6156 12C23.6156 5.58497 18.4151 0.384521 12 0.384521C5.58497 0.384521 0.384521 5.58497 0.384521 12C0.384521 18.4151 5.58497 23.6156 12 23.6156Z" fill="#7A6A2A"/>
<path d="M12 23.3709C18.28 23.3709 23.3709 18.28 23.3709 12C23.3709 5.72006 18.28 0.62915 12 0.62915C5.72006 0.62915 0.62915 5.72006 0.62915 12C0.62915 18.28 5.72006 23.3709 12 23.3709Z" fill="#BA9F33"/>
<mask id="mask0_2340_132573" style="mask-type:alpha" maskUnits="userSpaceOnUse" x="0" y="0" width="24" height="24">
<path d="M12 23.3709C18.28 23.3709 23.3709 18.28 23.3709 12C23.3709 5.72006 18.28 0.62915 12 0.62915C5.72006 0.62915 0.62915 5.72006 0.62915 12C0.62915 18.28 5.72006 23.3709 12 23.3709Z" fill="#BA9F33"/>
</mask>
<g mask="url(#mask0_2340_132573)">
<path d="M9.13006 16.6991L8.74948 15.9787L8.97084 15.0777L10.5495 14.468L9.87764 13.0894L10.2097 11.6971L10.833 10.4505L12.7592 10.1476L14.1747 8.7981L17.231 9.02916L17.831 12.2971L16.6757 16.4117L16.0174 18.5418L13.3495 18.6428L12.1106 17.7845L10.6602 17.1787L9.13006 16.6991Z" fill="#E2CC85"/>
<path d="M13.8097 16.6758C13.8097 16.6758 13.4408 16.8447 12.8116 16.8059C12.6291 16.5612 11.3534 16.4467 11.3534 16.4467C11.3534 16.4467 11.1942 16.3981 10.9126 16.5146C10.6291 16.6292 10.3612 16.6156 10.1107 16.6777C9.86019 16.7399 9.61164 16.4137 9.41941 16.3457C9.22718 16.2739 8.97281 16.101 8.97281 16.101L8.43494 16.0486L7.35533 15.5923L5.64077 13.8835L5.17476 14.6136L5.03107 15.5166L5.54951 16.5865L6.94563 17.8583L9.66795 18.5496L11.2815 18.0739L13.3029 17.2195L13.8097 16.6758Z" fill="#F1D789"/>
<path d="M4.13791 10.637L4.48354 9.59037L4.8952 8.91464L6.22142 8.80396L5.82336 9.96512L4.71461 11.9379L5.17481 13.6991L4.35927 14.1069L4.10879 13.7224L3.90684 12.8409L3.89325 11.8506L4.13791 10.637Z" fill="#F4ECB4"/>
<path d="M5.62523 16.604L5.37086 16.2486C5.37086 16.2486 5.3029 16.0797 5.34173 15.9321C5.38057 15.7826 5.37474 15.7729 5.35533 15.7166C5.33591 15.6603 5.1728 15.4661 5.18251 15.2991C5.19222 15.1302 5.16892 15.0739 5.29319 14.9399C5.42329 14.8098 5.38445 14.5846 5.38445 14.5846L5.55338 14.6894L5.59222 14.6312C5.59222 14.6312 5.65435 14.6797 5.65435 14.7554C5.66795 14.6506 5.61164 14.1651 5.73979 14.0545C5.86989 13.9438 6.09513 14.5729 6.09513 14.5729L5.95532 13.6603L5.5961 12.7244L4.95727 11.87L4.91844 10.9282V10.8467C4.91844 10.8467 4.62523 11.2972 4.54368 11.6525C4.48543 11.8972 4.62523 12.1943 4.59611 12.5457C4.57281 12.8952 4.54368 12.868 4.62912 13.0059C4.71455 13.1438 4.92232 13.4292 4.84077 13.635C4.76892 13.8117 4.52426 13.6875 4.52426 13.6875C4.52426 13.6875 4.47572 13.8312 4.4097 13.8836C4.3864 13.7981 4.36116 13.7438 4.31456 13.6913C4.31067 13.7244 4.30096 13.769 4.30096 13.769C4.30096 13.769 4.25824 13.635 4.21553 13.4661C4.15727 13.2409 4.09514 12.9438 4.03883 12.7845C4.01553 12.8758 3.95728 13.1535 3.95728 13.1535L3.99028 13.5807L4.14951 14.1671L4.3029 14.5515L4.45242 15.0214L4.58252 15.338L4.68737 15.5787L4.77863 16.1205L5.2194 16.5865L5.45436 16.6914L5.62523 16.604Z" fill="#F3E19D"/>
<path d="M4.36895 9.78257C4.36895 9.78257 4.05245 10.3204 3.96118 10.8622C3.86992 11.4039 3.78837 11.9767 3.84662 12.7146C3.90487 13.4583 4.01555 13.9146 4.10487 14.2408C4.25827 14.7825 4.65633 15.5359 4.65633 15.5359L4.66992 15.5068C4.66992 15.5068 4.56507 15.3146 4.5107 15.1088C4.45827 14.9029 4.43885 14.6583 4.39031 14.5476C4.34759 14.4369 4.27575 14.3418 4.24079 14.2058C4.20779 14.0758 4.20196 13.8699 4.10099 13.7165C4.05827 13.6544 4.00584 13.4913 3.99031 13.3282C3.97089 13.0835 4.00002 12.8097 3.97672 12.5845C3.934 12.2097 3.90487 11.9554 3.94371 11.7593C3.98254 11.5631 4.18448 11.0059 4.30876 10.5631C4.39031 10.2797 4.34177 10.0408 4.49128 9.79422C4.64079 9.54956 4.73206 9.33403 4.76507 9.18451C4.8039 9.04859 4.36895 9.78257 4.36895 9.78257Z" fill="#F2E8B0"/>
<path d="M5.86987 9.56689C5.86987 9.56689 5.70676 9.61544 5.62909 9.70088C5.55142 9.78243 5.51841 9.85039 5.41355 9.98825C5.3087 10.1281 5.30287 10.2387 5.21743 10.4116C5.132 10.5805 4.94364 10.8349 4.92034 10.9261C4.89704 11.0174 4.85821 11.4446 4.80966 11.6465C4.76694 11.8484 4.85821 12.097 4.85821 12.097L4.96889 12.0737C4.96889 12.0737 4.96889 12.2174 5.07957 12.3145C5.19025 12.4096 5.20967 11.9921 5.20967 11.9921L5.62326 10.596L6.24657 10.1727L6.31453 9.83097L5.86987 9.56689Z" fill="#F5EEC0"/>
<path d="M6.17288 10.1999C6.17288 10.1999 5.87967 10.2194 5.73598 10.3242C5.67773 10.3669 5.65443 10.4019 5.59229 10.4543C5.47773 10.5495 5.36123 10.6368 5.30492 10.7611C5.24278 10.8854 5.17482 11.0737 5.12822 11.4291C5.1088 11.5786 5.1088 11.7165 5.09521 11.8368C5.07579 12 5.04666 12.1301 5.0622 12.2213C5.08161 12.4077 5.27385 12.5048 5.29327 12.7165L5.69132 12.5145L6.06608 11.0368L6.8622 10.5378L6.41171 10.033L6.17288 10.1999Z" fill="#E6DB9D"/>
<path d="M6.23492 23.3902L4.45823 23.433L3.51648 23.3611C3.51648 23.3611 3.57473 22.6699 3.58832 22.5067C3.62133 22.4058 3.73201 22.1184 3.76502 22.066C3.78832 21.9883 3.81745 21.7922 3.75143 21.5514C3.79415 21.4834 3.92813 21.4466 4.07764 20.1068C4.1359 19.6077 4.1456 19.2291 4.18832 18.9922C4.25046 18.6563 4.29318 18.532 4.28347 18.4058C4.26988 18.2038 4.25434 18.0563 4.27376 17.9009C4.30289 17.6951 4.50483 17.4504 4.499 17.2815C4.49512 17.1475 4.42716 17.0602 4.36891 16.9786C4.31065 16.8971 4.26405 16.8291 4.26405 16.8291C4.26405 16.8291 4.66211 16.5553 4.65823 15.4524C4.67182 15.4563 4.68153 15.4621 4.68153 15.4621L4.87764 16.0194L5.01162 16.1825L5.52619 17.1417L6.18832 17.7844L7.16696 18.4427L7.78055 19.1106L7.84269 20.8912L7.04075 21.932L6.23492 23.3902Z" fill="#E5CB7A"/>
<path d="M6.52234 21.8545C6.52234 21.8545 6.53593 21.6331 6.71846 21.4894C6.74758 21.538 6.767 21.5846 6.76117 21.6195C6.79418 21.5613 7.02525 21.1885 7.54758 21.0914C8.06992 20.9962 8.19613 20.6156 8.19613 20.6156L9.30487 19.6079L10.5728 18.4409L12.1146 17.8991L12.835 17.7224C12.835 17.7224 12.8486 17.7749 12.8214 17.8914C12.9554 17.8817 13.2525 17.8137 13.5612 17.705C13.6855 17.6564 13.802 17.637 13.8641 17.7011C13.9554 17.7865 13.969 17.9885 13.9748 18.1088C14.1243 18.0758 14.2971 17.9321 14.435 17.9457C14.6563 17.969 14.8525 18.2292 15.0777 18.2292C15.3748 18.2292 15.5088 18.0467 15.7165 17.903C15.8408 17.8176 16.0194 17.7108 16.1204 17.6389C16.3612 17.4622 18.9088 16.6836 18.9088 16.6836L19.802 16.7418L19.9457 17.7011L19.868 20.2215L15.7787 22.3574L9.33205 23.3457L6.70681 22.6739L6.52234 21.8545Z" fill="#D8C173"/>
<path d="M3.79608 23.3961C3.79608 23.3961 4.03103 22.864 4.14171 22.0951C4.23298 21.466 4.15142 21.3223 4.17472 21.1203C4.20773 20.8174 4.54948 20.2271 4.57861 20.1125C4.60191 20.3475 4.66987 21.2349 4.91453 21.4329C4.86211 21.5106 4.77473 21.7786 5.08735 21.9844C5.03492 22.0951 4.92813 22.2291 4.99609 22.431C5.06405 22.6329 5.1456 22.9203 5.10677 23.2368C4.99609 23.2601 4.8757 23.3087 4.78055 23.3999C4.68541 23.4854 3.79608 23.3961 3.79608 23.3961Z" fill="#F1D789"/>
<path d="M7.82329 23.0252L9.25436 22.6272L9.31649 22.6466C9.31649 22.6466 9.3495 22.666 9.3495 22.732C9.44076 22.6796 9.51843 22.6893 9.57474 22.6543C9.60387 22.7165 9.633 22.9223 9.76115 22.9475C9.89513 22.9767 10.0388 22.8893 10.1845 22.7786C10.3281 22.664 10.4912 22.5204 10.6155 22.4621C10.6388 22.5009 10.6971 22.6213 10.7359 22.7204C10.899 22.5903 11.1825 22.0621 11.5864 22.0718C11.6252 21.9805 11.7689 21.6485 12.1476 21.3941C12.5223 21.1398 12.7573 21.1204 13.0505 21.1437C13.165 20.9941 13.3145 20.8602 13.4738 20.765C13.5223 20.7844 13.6563 20.866 13.8233 20.7883C13.9922 20.7106 14.1825 20.4097 14.433 20.3708C14.6544 20.3378 14.8213 20.4524 14.8213 20.4524C14.8213 20.4524 15.5514 19.7281 16.0544 19.4873C16.0349 19.4291 15.9961 19.2097 16.5864 18.7242C16.6194 18.7534 16.5961 18.8349 16.6194 18.8388C16.6291 18.8388 16.7728 18.7767 16.9553 18.6369C17.1806 18.4679 17.4505 18.2912 17.6136 18.2427C17.9204 18.1514 18.2466 18.3378 18.2466 18.3378C18.2466 18.3378 18.2854 18.3087 18.3378 18.2951C18.4155 18.2815 18.4718 18.2718 18.5145 18.2563C18.5107 18.3572 18.567 18.5301 18.5145 18.6796C18.5145 18.6796 18.5961 18.7281 18.7068 18.7611C18.6738 18.833 18.6019 19.0155 18.4815 19.1029C18.5825 19.1514 18.5961 19.2077 18.7398 19.2563C18.6815 19.3378 18.5864 19.4776 18.5437 19.5631C18.501 19.6543 18.3476 20.033 18.2796 20.1767C18.2078 20.3204 18.1107 20.5844 18.0641 20.6369C18.0155 20.6893 17.8485 20.9145 17.7184 21.0252C17.833 20.9825 18.3048 20.8388 18.5048 20.7844C18.3845 20.9611 17.2718 22.6136 17.2718 22.6136L15.0311 23.2815L13.932 23.4679L8.20581 23.464L7.70096 23.2136L7.82329 23.0252Z" fill="#E0CD81"/>
<path d="M6.22131 10.1475C6.22131 10.1475 6.05238 10.1475 6.01937 10.1708C5.98636 10.1941 6.1883 10.2426 6.25044 10.2659C6.31257 10.2892 6.44655 10.396 6.4815 10.4815C6.51451 10.563 7.6951 11.0388 7.6951 11.0388L8.53005 10.996L8.81743 10.598L8.26986 10.1184L8.65432 8.98633L8.14558 9.06788L6.92228 9.79798L6.30869 10.0329L6.22131 10.1475Z" fill="#DFC57C"/>
<path d="M8.05434 10.5224C8.05434 10.5224 8.08735 10.5846 8.1689 10.5846C8.34172 10.5846 8.50094 10.6273 8.56696 10.7147C8.67764 10.8545 8.98444 11.3011 8.98444 11.3011L9.71842 11.5651L9.76697 10.7011L8.96502 10.1438L8.0524 10.4797V10.5224H8.05434Z" fill="#E5CC7C"/>
<path d="M7.9107 10.8428C7.9107 10.8428 8.04468 10.8525 8.21361 10.7904C8.38255 10.7282 8.66021 10.5942 8.7806 10.6467C8.94953 10.7185 8.91458 10.9438 9.09711 11.1457C9.20778 11.27 9.40973 11.2661 9.52429 11.4001C9.63885 11.5341 10.033 11.4719 10.033 11.4719L10.1825 12.2777L9.58254 13.0467L9.38642 14.002H8.57478L7.83303 13.7088L7.46799 12.8253L7.65051 11.9321L7.9107 10.8428Z" fill="#D2C281"/>
<path d="M9.47958 10.8816C9.47958 10.8816 9.50871 10.8913 9.54172 10.8913C9.51842 10.9107 9.46987 10.9534 9.48929 11.0641C9.50871 11.1748 9.57084 11.3146 9.51842 11.4C9.54172 11.4292 9.57667 11.4622 9.60968 11.5593C9.64269 11.6544 9.6524 11.7418 9.86793 11.7554C9.81939 11.7845 9.78249 11.8233 9.78249 11.8233C9.78249 11.8233 9.93201 11.9534 10.0077 12.0738C10.0854 12.0699 10.2912 12.0059 10.2912 12.0059L10.3339 12.035L10.4252 11.9962C10.4252 11.9962 10.3398 11.9631 10.4019 11.7554C10.4602 11.5729 10.5126 11.5826 10.5165 11.569C10.5204 11.5554 10.5592 11.3631 10.5592 11.2855C10.5883 11.1845 10.6116 10.8777 10.6116 10.8777L10.5495 10.2L10.2 9.98839L9.91647 9.7146L9.64851 10.2195L9.47181 10.3962L9.45822 10.833L9.47958 10.8816Z" fill="#E2C270"/>
<path d="M10.3204 10.3145C10.3204 10.3145 10.3825 10.4912 10.4058 10.6271C10.4194 10.5844 10.4194 10.5455 10.4194 10.5455C10.4194 10.5455 10.468 10.8135 10.4777 10.9242C10.4971 10.9203 10.5165 10.9145 10.5204 10.9339C10.5243 10.9533 10.5689 11.1688 10.5592 11.2892C10.5825 11.2465 10.6932 11.0776 10.8855 10.963C10.9631 10.9145 11.0544 10.8621 11.1495 10.8582C11.299 10.8543 11.4078 10.9533 11.5864 10.9533C12.0175 10.9533 12.4078 10.6368 12.6952 10.5397C12.9068 10.4679 13.0893 10.4154 13.2175 10.2989C13.2796 10.2465 13.3903 10.13 13.4913 9.9572C13.6253 9.72613 13.7651 9.52613 13.9049 9.50089C13.7942 9.52031 13.7126 9.51448 13.7126 9.51448C13.7126 9.51448 13.7554 9.47176 13.8272 9.41351C13.899 9.35526 13.9864 9.28341 14.1107 9.28341C14.3321 9.28341 14.4427 9.31642 14.567 9.31642C14.6913 9.31254 14.7631 9.28341 14.7631 9.28341C14.7631 9.28341 14.8932 9.37468 15.1864 9.37468C15.4796 9.37856 15.6757 9.4038 15.8291 9.41739C15.9825 9.43099 16.4971 9.37468 16.6447 9.37856C16.7981 9.38244 16.9223 9.44652 16.9223 9.44652L16.4466 8.064L14.7379 6.5708L13.7204 7.29119L12.1554 8.85623L10.6408 9.41739L10.3243 9.77273V10.3145H10.3204Z" fill="#CCB360"/>
<path d="M13.7185 9.52222C13.7185 9.52222 13.7612 9.4795 13.8331 9.42125C13.9049 9.36299 13.9923 9.29115 14.1165 9.29115C14.3379 9.29115 14.4486 9.32416 14.5729 9.32416C14.6971 9.32028 14.769 9.29115 14.769 9.29115C14.769 9.29115 14.8991 9.38241 15.1923 9.38241C15.4855 9.3863 15.6816 9.41154 15.835 9.42513C15.9884 9.43872 16.5029 9.38241 16.6505 9.38629C16.8039 9.39018 16.9282 9.45426 16.9282 9.45426L16.7127 8.83096L16.4622 8.35523L15.7476 7.57271C15.7476 7.57271 14.8894 7.06786 14.8835 7.06397C14.8797 7.06009 14.5864 6.98242 14.5864 6.98242L13.8098 7.45232L13.1049 9.27562L13.0913 9.66008L13.5476 9.87561C13.6622 9.68338 13.7884 9.52998 13.9068 9.51057C13.8 9.52222 13.7185 9.52222 13.7185 9.52222Z" fill="#D5B457"/>
<path d="M13.7087 9.65247C13.6408 9.65636 13.5845 9.64276 13.5689 9.59422C13.5107 9.43111 13.4641 9.40781 13.4155 9.40781C13.367 9.40781 13.301 9.51267 13.2621 9.52237C13.2233 9.53208 13.1767 9.40199 13.1767 9.40199L13.134 9.38257C13.134 9.38257 12.8835 9.54568 12.7068 9.73791C12.5301 9.93014 12.2408 10.2564 12.1107 10.3146C11.9806 10.3729 11.534 10.3923 11.3806 10.4253C11.2272 10.4583 11.0582 10.569 11.0349 10.5942C11.0116 10.6195 11.1029 10.6466 11.1165 10.6719C11.1301 10.6952 10.967 10.6855 10.9534 10.7107C10.9437 10.7301 10.9922 10.8408 11.0155 10.8971C11.0582 10.8777 11.101 10.8641 11.1495 10.8641C11.299 10.8602 11.4078 10.9593 11.5864 10.9593C12.0175 10.9593 12.4078 10.6428 12.6951 10.5457C12.9068 10.4738 13.0893 10.4214 13.2175 10.3049C13.2796 10.2525 13.3903 10.136 13.4912 9.96315C13.565 9.8447 13.6369 9.73403 13.7087 9.65247Z" fill="#D2B257"/>
<path d="M7.52617 19.2623C7.52617 19.2623 7.48734 19.1186 7.13199 18.7477C7.03102 18.6428 6.96889 18.5555 6.90093 18.4933C6.73199 18.3341 6.63296 18.2914 6.51258 18.2001C6.2485 18.004 5.96112 18.004 5.73976 17.7632C5.5184 17.5224 5.26015 17.0623 5.08151 16.5923C4.90481 16.1224 4.85626 15.9729 4.85626 15.9593C4.85626 15.9457 4.90481 15.8545 4.96694 15.8681C5.02908 15.8817 5.02908 16.0021 5.04461 16.0312C5.0485 16.0409 5.09316 16.103 5.14947 16.1652C5.24073 16.27 5.37083 16.3962 5.43685 16.5826C5.42325 16.4234 5.36888 16.2467 5.36888 16.2467C5.36888 16.2467 5.71063 16.4623 6.0019 16.6875C6.2951 16.9127 6.41549 16.9904 6.50093 17.1341C6.58636 17.2778 6.78831 17.6564 6.88539 17.7671C6.98248 17.8778 8.30675 18.2953 8.30675 18.2953L8.93588 18.7652L9.2485 19.4506L9.00384 19.8351L8.53394 19.936L7.77083 19.5943L7.52617 19.2623Z" fill="#D2B159"/>
<path d="M5.83104 16.901C5.83104 16.901 5.99027 17.1554 6.37862 17.3962C6.72813 17.6078 7.28153 17.8 7.77473 17.9146C8.05823 17.9826 8.34172 18.035 8.59609 18.0389C9.28153 18.0486 9.75337 17.8525 10.3378 17.7884C10.6543 17.7554 11.0427 17.7301 11.4466 17.635C11.965 17.5107 12.2718 17.3709 12.6893 17.1748C12.9922 17.035 13.2699 16.9301 13.4951 16.7962C13.8116 16.6097 14.0427 16.402 14.3107 16.3398C14.2776 16.4311 14.2427 16.5942 13.9786 16.7631C14.1184 16.7593 14.3107 16.7496 14.3107 16.7496C14.3107 16.7496 14.1242 16.8602 13.7961 17.1088C13.5941 17.2622 13.3262 17.5224 13.0524 17.6952C12.8757 17.8059 12.6835 17.8874 12.5573 17.9534C12.2505 18.1224 12.1262 18.2078 11.9242 18.4136C11.9961 18.4097 12.0019 18.4136 12.0019 18.4136C12.0019 18.4136 11.7475 18.4466 11.565 18.5437C11.5262 18.5437 11.4602 18.5301 11.3437 18.5631C11.2524 18.5923 11.132 18.6583 11.0077 18.6932C10.831 18.7457 10.7728 18.7224 10.7728 18.7224L10.8019 18.7806C10.8019 18.7806 10.5708 18.7767 10.4951 18.7845C10.5087 18.7884 10.5048 18.7942 10.5048 18.7942C10.5048 18.7942 10.4951 18.7942 10.466 18.8078C10.4427 18.8214 10.4039 18.8466 10.3456 18.8602C10.3223 18.8641 10.3029 18.8641 10.2738 18.8699C10.2835 18.8932 10.3592 19.0233 10.3941 19.101C10.365 19.1204 9.92813 19.4505 9.92813 19.4505C9.92813 19.4505 9.94755 19.4796 9.96114 19.5185C9.97473 19.5612 9.98056 19.6233 9.99415 19.6525C10.0272 19.7107 10.0466 19.7204 10.0466 19.7204C10.0466 19.7204 9.99415 19.7301 9.90289 19.7534C9.82522 19.7728 9.73007 19.8059 9.59609 19.8253C9.55726 19.8292 9.51454 19.835 9.47182 19.835C9.49124 19.8777 9.57667 20.0408 9.41939 20.2292C9.26017 20.4156 9.21357 20.4447 9.16502 20.5651C9.15143 20.5554 9.12619 20.536 9.08735 20.5165C9.03493 20.4932 8.96308 20.4583 8.93784 20.4117C8.93396 20.4311 8.91454 20.5068 8.87959 20.5942C8.83104 20.7243 8.7592 20.8525 8.74561 20.9495C8.69318 20.8913 8.59609 20.7767 8.46211 20.8C8.32813 20.8233 8.22133 21.0059 8.19803 21.0583C8.19803 21.0253 8.17473 21 8.16891 21.0389C8.16502 21.0816 8.09124 21.5282 7.67959 21.8893C7.6757 21.7981 7.6757 21.5961 7.66599 21.5301C7.62716 21.569 7.58056 21.6253 7.30095 21.7457C7.02716 21.866 7.06988 21.9864 7.06988 21.9864C7.06988 21.9864 7.04658 21.7942 7.19415 21.5923C7.34366 21.3903 7.43493 21.2952 7.43493 21.2796C7.43493 21.2758 7.43104 21.2563 7.41551 21.2369C7.39609 21.2175 7.35726 21.1942 7.35726 21.1787C7.38056 21.169 7.61163 21.0583 7.59803 20.8292C7.58444 20.6233 7.49706 20.5165 7.43493 20.4408C7.42522 20.4311 7.52619 20.3593 7.5126 20.336C7.50289 20.3224 7.37862 20.2311 7.36308 20.1826C7.36697 20.1593 7.37279 20.1204 7.3825 20.0971C7.39609 20.0544 7.4058 20.0253 7.40192 19.9961C7.39221 19.9476 7.33978 19.8136 7.32425 19.8C7.33784 19.8039 7.43493 19.8 7.43493 19.8C7.43493 19.8 7.35726 19.6758 7.34366 19.6175C7.33007 19.5593 7.30095 19.4059 7.28541 19.3767C7.31842 19.3806 7.39997 19.3864 7.39997 19.3767C7.40386 19.3476 7.32813 19.2991 7.36114 19.2622C7.38444 19.2661 7.4291 19.2855 7.47182 19.3398C7.44852 19.2777 7.40968 19.1573 7.32813 19.1088C7.36697 19.0952 7.49706 19.0602 7.61163 19.1282C7.72619 19.1961 7.76502 19.2913 7.76502 19.2913C7.76502 19.2913 7.83298 19.3437 7.93784 19.4214C8.05823 19.5165 8.21163 19.6525 8.45629 19.7476C8.50871 19.7767 8.64269 19.7767 8.73978 19.7573C8.79803 19.7437 8.83104 19.7243 8.86017 19.7088C8.88347 19.6952 8.90289 19.6894 8.90289 19.6894C8.90289 19.6894 8.86405 19.6117 8.83104 19.569C8.86405 19.569 8.90289 19.5728 8.90289 19.5728C8.90289 19.5728 8.92619 19.5204 8.82133 19.4194C8.84463 19.3961 8.87376 19.3806 8.87376 19.3418C8.84075 19.3379 8.7825 19.2894 8.76891 19.2699C8.78832 19.2563 8.81745 19.2117 8.85046 19.1981C8.82133 19.1748 8.74949 19.0777 8.71648 19.068C8.74949 19.0583 8.80774 19.0253 8.80774 19.0253C8.80774 19.0253 8.64463 18.9826 8.59221 18.9476C8.53978 18.9088 8.46211 18.8428 8.41551 18.8233C8.36697 18.8039 8.28153 18.7942 8.24658 18.7554C8.27959 18.7651 8.33201 18.7554 8.37085 18.7554C8.39998 18.7554 8.41357 18.7593 8.42328 18.7593C8.41939 18.7457 8.41939 18.7165 8.49512 18.7068C8.56697 18.6932 8.59997 18.6738 8.59997 18.6738C8.59997 18.6738 8.52813 18.6699 8.44658 18.5923C8.36502 18.5146 8.29706 18.4525 8.25046 18.4428C8.20192 18.433 8.11065 18.4758 8.05434 18.4719C7.97667 18.4622 7.94366 18.4233 7.94366 18.4233C7.94366 18.4233 7.68541 18.4466 7.1126 18.0971C6.61745 17.7942 6.40192 17.5262 6.40192 17.5262C6.40192 17.5262 6.34366 17.5068 6.26794 17.4641C6.08153 17.367 5.82328 17.1651 5.83104 16.901Z" fill="#C2A44D"/>
<path d="M12.9747 5.24658C12.9747 5.24658 13.0427 5.266 13.0893 5.32425C13.1806 5.4291 13.2388 5.62716 13.0311 5.83881C13.1126 5.86794 13.1456 5.87765 13.2175 5.86794C13.1456 5.95338 12.9825 6.1359 12.9728 6.29513C12.9631 6.42522 13.0446 6.46406 13.0446 6.46406C13.0446 6.46406 12.9204 6.60775 12.9145 6.84853C12.9437 6.81552 13.0097 6.74367 13.1068 6.666C13.2505 6.55144 13.4485 6.42134 13.5825 6.33979C13.5786 6.39221 13.5961 6.44076 13.5961 6.44076C13.5961 6.44076 13.8466 6.23493 14.0563 6.32619C14.1514 6.36891 14.1087 6.50289 14.1087 6.50289C14.1087 6.50289 14.2388 6.45435 14.3301 6.54561C14.4214 6.63687 14.5514 6.87183 14.6175 6.96309C14.6466 7.00581 14.7223 7.08736 14.8 7.21357C14.8913 7.36309 14.9922 7.56891 15.0641 7.77086C15.068 7.66989 15.0932 7.5126 15.3806 7.61163C15.668 7.7126 15.9942 7.92426 16.268 8.34173C16.5417 8.75921 16.6097 9.22911 16.7476 9.40775C16.8874 9.58057 17.0311 9.86795 17.0408 9.98834C17.0505 10.1087 16.9981 10.4971 17.2854 11.5476C17.367 11.2213 17.4913 10.4971 17.4913 10.4971L17.5592 9.85824L17.6369 7.88154L15.5728 6.16697L13.9592 4.99609L12.9087 5.09707L12.9747 5.24658Z" fill="#CAA13E"/>
<path d="M16.8096 8.1884C16.8096 8.1884 16.7805 7.99617 16.2951 7.66995C15.8096 7.34762 15.431 7.34762 15.0815 7.07384C14.8135 6.8583 14.5339 6.36316 14.3514 6.20005C14.1747 6.03889 14.1456 5.57287 14.1456 5.57287L14.7417 5.07384L15.6291 3.79228L16.3786 2.96704L16.7378 3.46607L17.2368 4.05248L17.5145 5.22918L17.6155 6.95151L16.8096 8.1884Z" fill="#B59544"/>
<path d="M17.4097 10.2524C17.4097 10.2524 17.4427 9.87767 17.3146 9.47961C17.1864 9.08155 16.9068 8.37476 16.7767 8.11068C16.7243 7.81748 16.7631 7.79418 16.8194 7.76117C16.8777 7.72816 17.0874 7.60777 17.2039 7.18447C17.3185 6.76117 17.6796 6.74758 17.6796 6.74758L17.901 6.58447L18.2369 7.42525L18.5301 8.18447L18.6214 8.76505L18.6893 9.26019L18.5301 10.3068L17.7437 11.0175L17.4097 10.2524Z" fill="#C89D3A"/>
<path d="M6.23494 23.3904C6.23494 23.3904 6.05824 23.0642 6.04853 22.9244C6.04465 22.7904 6.09708 22.703 6.09708 22.703C6.09708 22.703 6.02912 22.602 5.96698 22.5787C5.98057 22.5108 6.00582 22.4292 6.05824 22.3729C6.11067 22.3108 6.21164 22.2292 6.23106 22.2001C6.25048 22.171 6.26018 22.1321 6.3165 22.1224C6.37475 22.1127 6.43688 22.1127 6.43688 22.037V21.8972C6.43688 21.8972 6.46019 21.8836 6.4796 21.8583C6.4932 21.8389 6.5029 21.8156 6.51261 21.8098C6.53203 21.8001 6.62329 21.771 6.67184 21.7807C6.72038 21.7904 6.84854 21.8428 6.9165 21.8389C7.0563 21.835 7.21941 21.7282 7.47766 21.7768C7.86601 21.8486 7.95728 22.1127 8.18252 22.2622C8.33592 22.3671 8.49514 22.3205 8.51844 22.3205H8.57087C8.58058 22.3205 8.65242 22.2389 8.69126 22.2428C8.76893 22.2467 8.77669 22.3108 8.82524 22.3147C8.9398 22.3282 9.16116 22.2564 9.27184 22.2855C9.32427 22.2991 9.39223 22.3535 9.41165 22.4253C9.43495 22.4972 9.41553 22.5884 9.35922 22.6409C9.23883 22.7516 9.12427 22.8564 9.10097 22.9477C9.13398 22.971 9.19223 23.0253 9.19223 23.0253C9.19223 23.0253 9.1398 23.0739 9.04271 23.1205C9 23.1399 8.93203 23.1729 8.85631 23.1826C8.71262 23.1962 8.53398 23.2156 8.42912 23.369C8.32427 23.5224 7.9631 23.437 7.9631 23.437L6.23494 23.3904Z" fill="#CEB052"/>
<path d="M16.7767 18.0389C16.7767 18.0389 17.0796 17.635 17.1845 17.435C17.2893 17.2292 16.8524 14.6176 16.8524 14.6176L17.7301 11.7418L17.7068 10.8059C17.7068 10.8059 17.7495 9.94183 17.8505 9.56708C17.9709 9.78261 18.3456 10.0428 18.4272 10.1807C18.466 9.91659 18.5961 9.35931 18.5767 8.76514C18.6486 8.87582 18.8214 9.98844 18.8214 9.98844L18.9942 10.7379L19.2194 11.5341L19.4699 12.3748L19.6194 12.9554L19.7049 13.0952L19.7767 13.3399L19.8447 13.604L20.0408 14.2234L20.1554 14.7321L20.2466 15.6544C20.2466 15.6544 20.2796 15.769 20.2893 15.87C20.2932 15.971 20.2757 16.0292 20.2757 16.0467C20.2757 16.0661 20.3088 16.268 20.2952 16.4214C20.2757 16.5748 20.2757 16.6952 20.1554 16.8059C20.035 16.9166 19.9592 17.5748 19.9592 17.5748L19.7437 17.4311C19.7437 17.4311 19.7864 17.235 19.6855 17.0564C19.5845 16.8797 19.3884 16.8409 19.2777 16.87C19.167 16.8933 18.9456 16.9282 18.8738 16.9904C18.8058 17.0525 18.6388 17.2447 18.4854 17.3321C18.2932 17.4467 17.9806 17.4564 17.8136 17.4952C17.6447 17.5341 17.4583 17.6486 17.2621 17.7826C17.0583 17.9146 16.8524 18.0098 16.7767 18.0389Z" fill="#CCA847"/>
<path d="M16.7767 22.2815C16.7767 22.2815 16.9456 22.3922 17.2563 22.4679C17.567 22.5436 18.3612 22.9999 18.3612 22.9999L19.0291 23.4077L19.8544 23.4698L20.5787 23.3689C20.5787 23.3689 20.602 23.0621 20.5554 21.9184C20.5068 20.7708 20.4699 20.6077 20.4699 20.5223C20.4699 20.4368 20.4408 18.9805 20.4078 18.664C20.3748 18.3475 20.3981 18.0252 20.3884 17.8388C20.3787 17.6524 20.2738 16.8931 20.2253 16.697C20.1728 16.5009 20.0719 16.4038 20.0563 16.4038C20.0427 16.4077 19.9612 16.7727 19.9612 16.864C19.9612 16.9553 19.9418 17.1766 19.9418 17.2329C19.9282 17.2291 19.9224 17.1941 19.9224 17.1805C19.9029 17.2291 19.8796 17.3145 19.8699 17.3242C19.8602 17.3339 19.8835 17.2426 19.8699 17.2232C19.8563 17.2038 19.8311 17.2135 19.8369 17.165C19.8408 17.1164 19.8505 17.0795 19.8505 17.0795C19.8505 17.0795 19.7923 17.165 19.7495 17.3825C19.7068 17.598 19.7068 17.6038 19.6913 17.6232C19.6777 17.6465 19.6 17.7242 19.5961 17.7533C19.5923 17.8058 19.668 17.8582 19.6738 17.8873C19.6777 17.9359 19.6058 18.1611 19.5825 18.2718C19.5592 18.3825 19.569 18.598 19.5437 18.7087C19.5243 18.8096 19.5049 18.8679 19.4389 18.9106C19.4874 18.9203 19.534 18.9339 19.534 18.9339C19.534 18.9339 19.602 19.2213 19.4291 19.466C19.367 19.5514 19.3515 19.5902 19.2855 19.6679C19.1554 19.8116 19.0544 19.9747 19.0447 20.0815C19.035 20.0426 19.0311 19.9863 19.0311 19.9863C19.0311 19.9863 18.8291 20.2213 18.7437 20.3553C18.633 20.5281 18.4796 20.5184 18.4369 20.5611C18.3942 20.6038 18.3845 20.6815 18.3981 20.7436C18.3592 20.7533 18.2874 20.7669 18.2388 20.9164C18.2155 20.9941 18.1573 21.0698 18.066 21.1223C17.9748 21.1747 17.8641 21.1902 17.8078 21.2038C17.8563 21.2174 17.8757 21.2174 17.899 21.2329C17.8699 21.2815 17.7359 21.3572 17.5864 21.4543C17.4369 21.5456 17.3651 21.6795 17.3282 21.7669C17.2893 21.8485 17.233 21.9009 17.1418 21.9106C17.1806 21.9339 17.2369 21.9883 17.266 22.0058C17.2233 22.0155 17.1515 22.0155 17.0214 22.1262C16.8854 22.2388 16.8388 22.2718 16.7767 22.2815Z" fill="#C39D3C"/>
<path d="M13.8913 23.3572C13.8913 23.3572 14.0117 23.1708 14.3146 23.0543C14.6175 22.9339 14.9379 22.9106 15.0641 22.8718C15.1845 22.833 15.2796 22.7805 15.4291 22.7514C15.4155 22.866 15.4097 22.9572 15.3767 23.0349C15.4874 23.0543 15.765 22.8388 15.9146 22.7903C16.0641 22.7417 16.4039 22.6699 16.433 22.6466C16.4621 22.6233 16.5243 22.4835 16.5437 22.4776C16.5631 22.4738 16.6155 22.5068 16.6485 22.5068C16.7107 22.5068 17.1476 22.1029 17.4932 22.1087C17.8349 22.1126 18.2233 22.3961 18.165 22.6505C18.2563 22.598 18.3514 22.5495 18.4291 22.5689C18.4194 22.6019 18.4155 22.6407 18.4155 22.6407C18.4155 22.6407 18.6019 22.598 18.6505 22.6602C18.7029 22.7223 18.6738 22.7806 18.8 22.9281C18.901 23.0524 18.8718 23.0815 18.8524 23.1242C18.901 23.1378 19.1398 23.2194 19.3612 23.4271C19.5825 23.633 17.5942 23.5048 17.5942 23.5048L13.9262 23.4718L13.8913 23.3572Z" fill="#D2BA6B"/>
<path d="M19.6602 15.2155C19.6602 15.2155 19.5981 15.5514 19.4874 15.7631C19.3767 15.9747 19.2563 16.2679 19.2563 16.2679C19.2563 16.2679 19.2563 16.1631 19.2796 16.0718C19.1398 16.1534 18.8 16.3495 18.7029 16.4369C18.6117 16.5184 18.4583 16.6621 18.4194 16.7301C18.5107 16.4621 18.6059 16.2213 18.6214 16.1106C18.4816 16.2116 17.8292 16.7495 17.4894 17.1048L16.4311 17.9611C16.4311 17.9611 16.268 18.0524 16.0564 18.1378C15.8738 18.2155 15.6583 18.2815 15.4991 18.3437C15.5418 18.2291 15.6098 18.1281 15.7049 18.031C15.8059 17.9359 16.1088 17.6077 16.1554 17.4543C16.1981 17.2951 16.2078 17.2 16.1515 17.066C16.0991 17.0796 15.9787 17.0854 15.8971 17.1087C15.8156 17.132 15.7282 17.2194 15.7282 17.2194C15.7282 17.2194 15.7903 16.864 15.9243 16.5281C15.8233 16.532 15.6505 16.5611 15.6505 16.5611C15.6505 16.5611 15.8913 16.1572 16.303 15.8757C16.235 15.8893 16.0816 15.9281 15.934 15.9902C15.6933 16.0912 15.4292 16.2407 15.2331 16.3223C15.3437 16.1689 16.1204 15.0602 16.5826 14.0271C17.0428 12.9961 17.2156 12.732 17.3165 12.1786C17.369 11.9048 17.3554 11.5009 17.369 11.1378C17.3826 10.7786 17.4272 10.4563 17.3981 10.2407C17.5185 10.3902 17.969 10.8116 17.9845 11.7533C17.9981 12.6951 17.5534 13.9669 17.0816 14.6524C17.1962 14.6854 17.4952 14.7242 17.802 14.1922C18.1088 13.6601 18.1049 13.5106 18.2156 13.2893C18.2292 13.4 18.2253 13.4388 18.2253 13.4388C18.2253 13.4388 18.6719 12.897 18.8835 12.2155C18.9262 12.5087 19.0525 12.7669 18.8544 13.3048C18.6777 13.7902 18.4466 13.9087 18.4466 13.9087C18.4466 13.9087 18.5612 13.8893 18.7301 13.7883C18.7593 13.8601 18.7534 13.9417 18.802 13.9708C18.8505 14 18.9165 14.0485 18.9262 14.0951C18.9787 14.0174 19.0602 13.9184 19.0855 13.8446C19.066 13.998 19.0525 14.6699 19.1243 15.0116C19.2738 14.998 19.4272 14.9883 19.5321 14.7184C19.4602 14.9825 19.4602 15.1417 19.5088 15.3669C19.5884 15.3126 19.6602 15.2155 19.6602 15.2155Z" fill="#C0993A"/>
<path d="M14.6155 4.51256C14.6155 4.51256 14.466 4.57469 14.2117 4.57469C13.9903 4.57469 14.0524 4.48926 13.7068 4.48926C13.1748 4.48926 11.3165 4.79605 10.9903 4.79217C10.7787 4.78828 11.7049 4.88343 11.7049 4.88343L14.0719 4.91643L14.5476 4.8776L14.7243 4.51838L14.6155 4.51256Z" fill="#A88F33"/>
<path d="M8.47773 9.13983C8.47773 9.13983 8.17482 9.3709 8.04667 9.5476C7.91657 9.72429 7.85055 9.8408 7.70493 9.98449C7.75347 9.98837 7.8059 9.9709 7.8059 9.9709C7.8059 9.9709 7.8059 10.0097 7.78259 10.0194C7.83114 10.0156 7.86803 10.033 7.89327 10.0583C7.85055 10.0816 7.73405 10.1981 7.82531 10.3359C7.89327 10.4408 8.03696 10.4505 8.03696 10.4505C8.03696 10.4505 8.00395 10.5457 8.14181 10.5359C8.4389 10.5223 8.77093 10.3923 8.92433 10.4253C9.07772 10.4641 9.1651 10.4777 9.27384 10.666C9.3884 10.8524 9.48937 10.8816 9.48937 10.8816C9.48937 10.8816 9.55733 10.7088 9.5418 10.4505C9.63306 10.2291 9.63306 10.0136 9.63306 10.0136L9.53209 9.26993L9.09132 8.71265L8.52045 9.02915L8.47773 9.13983Z" fill="#E3C571"/>
<path d="M9.01944 9.02912C9.01944 9.02912 9.06216 9.13009 9.2408 9.1398C9.22138 9.18252 9.22138 9.18835 9.22721 9.22136C9.23109 9.25436 9.23692 9.30291 9.23692 9.30291C9.23692 9.30291 9.26022 9.2932 9.28934 9.26407C9.29905 9.30679 9.27963 9.37475 9.28934 9.4233C9.29905 9.47184 9.31847 9.50873 9.31847 9.50873C9.31847 9.50873 9.32235 9.49903 9.32818 9.48932C9.33206 9.47961 9.36701 9.59417 9.46216 9.68155C9.46216 9.65825 9.47187 9.64271 9.47187 9.64271C9.47187 9.64271 9.47187 9.67572 9.49517 9.71068C9.48546 9.70679 9.47575 9.69708 9.47575 9.69708C9.47575 9.69708 9.48546 10.0039 9.53789 10.1631C9.55148 10.1437 9.5573 10.1398 9.56119 10.1301C9.56119 10.1204 9.5573 10.2155 9.5476 10.2835C9.534 10.3514 9.54371 10.4466 9.54371 10.4466C9.54371 10.4466 9.59614 10.4039 9.65827 10.3786C9.71653 10.3553 9.81167 10.2835 9.86993 10.1243C9.92818 9.96504 9.9476 9.8466 9.9476 9.8466C9.9476 9.8466 9.9806 9.90873 9.98643 9.96116C9.99031 10.0097 10.0816 9.98446 10.0816 9.98446L10.101 9.77281L10.2156 9.2932L10.3204 8.99611L10.8253 8.20971L11.7379 7.50874L12.534 7.69126L13.2058 6.77864L12.0486 6.0835L10.9534 6.19806L9.95925 7.57476L9.16313 8.8233L9.01944 9.02912Z" fill="#D8B65B"/>
<path d="M14.7553 7.0368C14.7553 7.0368 14.6874 7.05039 14.4913 7.15136C14.2952 7.25233 14.1592 7.28534 14.0835 7.43486C14.0058 7.58437 14.0019 7.70282 14.0019 7.70282C14.0019 7.70282 14.1359 7.64457 14.2136 7.62515C14.2952 7.60573 14.3864 7.61156 14.3767 7.64457C14.367 7.67369 14.3379 7.7067 14.3379 7.7067C14.3379 7.7067 14.4913 7.70282 14.4874 7.77855C14.4835 7.85622 14.4583 7.93777 14.4291 7.97466C14.4 8.0135 14.2796 8.06981 14.266 8.11447C14.233 8.20573 14.2796 8.20961 14.2621 8.2834C14.2486 8.35524 14.1845 8.49505 13.9748 8.73971C13.7592 8.98437 13.668 9.15718 13.668 9.15718C13.668 9.15718 13.5631 8.96107 13.5087 8.79214C13.4699 8.81155 13.2641 8.92612 13.2641 8.92612L12.7864 7.26204L12.7961 7.15136C12.7961 7.15136 12.8388 7.09894 12.8485 7.00185C12.7767 6.97855 12.767 6.95913 12.6718 6.86787C12.5767 6.77661 12.499 6.66593 12.3398 6.5902C12.3165 6.54748 12.2874 6.48923 12.1709 6.46593C12.0563 6.44263 11.9845 6.42321 11.9845 6.42321C11.9845 6.42321 12.0466 6.39991 12.0757 6.35137C12.0039 6.36107 11.9456 6.38437 11.7884 6.38049C11.6291 6.37661 11.6117 6.37078 11.5243 6.38437C11.4369 6.39797 11.332 6.4368 11.2932 6.30282C11.2505 6.26981 11.1592 6.29894 11.0816 6.4135C11.0039 6.52806 10.9767 6.61933 10.8272 6.66399C10.8233 6.69311 10.8078 6.76884 10.7592 6.85039C10.7165 6.92224 10.6485 6.99408 10.5573 7.10088C10.4136 7.26981 10.4369 7.54748 10.2078 7.75913C9.9767 7.97078 10.2466 7.17272 10.2466 7.17272L10.6155 6.28923L11.666 5.26205L13.2971 5.15137L13.4563 5.99603L14.2524 6.26981L14.7553 7.0368Z" fill="#D3AE4D"/>
<path d="M15.0136 7.22324L14.3282 6.23489L13.8486 5.86595C13.8486 5.86595 13.5068 5.23683 13.4835 5.21741C13.4641 5.20382 13.1418 5.16887 12.9359 5.15527L12.9748 5.25042C12.9748 5.25042 13.0427 5.26984 13.0893 5.32809C13.1806 5.43294 13.2389 5.631 13.0311 5.84265C13.1126 5.87178 13.1456 5.88149 13.2175 5.87178C13.1456 5.95722 12.9825 6.13974 12.9728 6.29897C12.9631 6.42906 13.0447 6.4679 13.0447 6.4679C13.0447 6.4679 12.9204 6.61159 12.9146 6.85236C12.9437 6.81935 13.0097 6.74751 13.1068 6.66984C13.2505 6.55528 13.4486 6.42518 13.5825 6.34363C13.5787 6.39605 13.5961 6.4446 13.5961 6.4446C13.5961 6.4446 13.8466 6.23877 14.0563 6.33003C14.1515 6.37275 14.1088 6.50673 14.1088 6.50673C14.1088 6.50673 14.2388 6.45819 14.3301 6.54945C14.4214 6.64071 14.5515 6.87567 14.6175 6.96693C14.6466 7.00965 14.7223 7.0912 14.8 7.21741C14.8913 7.36693 14.9922 7.57275 15.0641 7.7747C15.068 7.69703 15.0835 7.58829 15.2175 7.58829L15.0136 7.22324Z" fill="#CAA13E"/>
<path d="M4.73788 10.0311C4.73788 10.0311 4.68934 9.91073 4.73788 9.67578C4.78643 9.44083 4.86216 9.33015 4.8874 8.98452C4.9107 8.63888 5.13789 8.20781 5.13789 8.20781L5.76119 7.92432L6.20197 8.04471L6.33207 8.635L5.77478 8.9418C5.77478 8.9418 5.74566 9.0719 5.58837 9.17675C5.42915 9.2816 5.21361 9.36316 5.16119 9.46996C5.10876 9.58064 5.09323 9.67578 5.09323 9.67578C5.09323 9.67578 4.934 9.64277 4.83886 9.74763C4.73788 9.85442 4.74177 9.94957 4.73788 10.0311Z" fill="#F4EFC8"/>
<path d="M5.99606 9.87376C5.99606 9.87376 5.94364 9.90677 5.9048 9.98833C5.86597 9.92619 5.77471 9.55726 5.77082 9.22522C5.76694 8.89319 5.74752 8.81163 5.82325 8.69707C5.90092 8.58251 6.20189 8.46212 6.15917 8.2563C6.11645 8.06018 5.93781 7.97863 5.71839 8.03494C5.565 8.07377 5.45043 8.39999 5.29121 8.56309C5.17082 8.68736 5.02713 8.66795 4.9883 8.73591C4.93587 8.82717 4.98442 8.91843 4.96888 8.97668C4.965 8.9961 4.91645 9.10095 4.82908 9.22717C4.65238 9.48153 4.35335 9.84076 4.31451 10.1631C4.32811 9.98056 4.3184 9.97668 4.36694 9.77474L4.33782 9.72619L4.53005 9.09707L4.65432 8.57863L4.93199 7.71067L5.42131 6.8233L5.89704 6.29126L6.39218 6.32427L6.45043 7.06795L6.73393 8.46406L7.33004 9.19804L6.3747 9.84075L5.99606 9.87376Z" fill="#EBCC73"/>
<path d="M6.29326 10.1379C6.29326 10.1379 6.2117 10.1573 6.18258 10.1418C6.15345 10.1282 6.12433 10.1087 6.13403 10.0893C6.14374 10.0699 6.19617 10.0369 6.19617 10.0214C6.19617 10.0078 6.19229 9.96894 6.14763 9.96311C6.10297 9.95729 6.08937 9.98641 6.08937 9.98641C6.08937 9.98641 6.04666 9.95341 6.0117 9.94758C6.04083 9.9437 6.07384 9.9437 6.07384 9.9437C6.07384 9.9437 5.99229 9.90486 5.90491 9.89515C5.95345 9.86603 6.0486 9.78059 6.11073 9.78059C6.17287 9.78059 6.2117 9.77088 6.202 9.73787C6.19229 9.70486 6.14374 9.65632 6.09132 9.6369C6.11073 9.6136 6.12433 9.57865 6.07772 9.4835C6.02918 9.38836 6.0486 9.32428 6.06413 9.30098C6.07772 9.27185 6.12627 9.21943 6.14957 9.18642C6.17287 9.15341 6.19229 9.10875 6.23112 9.08545C6.25054 9.07185 6.31268 9.04661 6.37481 9.02331C6.44277 9.00001 6.49908 8.97088 6.53792 9.00001C6.58064 9.02913 6.56122 9.06797 6.56122 9.06797C6.56122 9.06797 6.6952 9.01943 6.81559 9.08156C6.93598 9.13981 7.22918 9.17671 7.22918 9.17671L7.33404 9.38836L6.63889 9.98447L6.35151 10.1282L6.29326 10.1379Z" fill="#E5C66B"/>
<path d="M7.25824 9.16308C7.25824 9.16308 7.0427 9.30677 6.99416 9.3592C7.02329 9.36308 7.07183 9.3825 7.05241 9.41162C7.02911 9.44075 6.88931 9.54172 6.81163 9.63686C6.73008 9.73201 6.65241 9.8524 6.62523 9.91065C6.5961 9.96308 6.37474 10.1165 6.29901 10.1359C6.45824 10.1359 6.77863 9.93977 6.89901 9.93977C6.89513 9.99803 6.93202 10.064 6.99999 10.0699C7.06795 10.0738 7.26406 10.1126 7.52814 9.94948C7.79222 9.79026 7.70484 9.67182 7.81552 9.59415C8.02717 9.45434 8.11261 9.33007 8.22912 9.2524C8.34368 9.17473 8.40582 9.15726 8.40582 9.15726C8.40582 9.15726 8.4097 9.099 8.44465 9.10483C8.47766 9.10871 8.48737 9.13784 8.48737 9.13784C8.48737 9.13784 8.68931 8.99415 8.94757 8.95532C8.93786 8.95143 8.93398 8.94172 8.93398 8.94172C8.93398 8.94172 8.95339 8.93202 8.95728 8.92231C8.95728 8.92231 8.97087 8.90289 8.98058 8.9126C8.99029 8.92231 9.00388 8.99415 9.0233 9.02328C9.06602 9.00386 9.14757 8.82134 9.14757 8.82134L9.34369 8.26018V7.74756L9.19029 7.77668L8.03883 8.266L7.33979 8.99027L7.25824 9.16308Z" fill="#E6BD62"/>
<path d="M10.5747 6.64842C10.5747 6.64842 10.6757 6.62512 10.7514 6.57658C10.7281 6.63871 10.7281 6.70667 10.6271 6.85425C10.5262 7.00376 10.5223 7.02318 10.4407 7.17658C10.3592 7.3358 10.3495 7.56493 10.2718 7.6659C10.3339 7.63677 10.3825 7.63289 10.3825 7.63289C10.3825 7.63289 10.3048 7.70085 10.2718 7.77269C10.2388 7.84454 10.1805 7.99405 10.0369 8.08532C9.89317 8.17658 9.71065 8.23483 9.51453 8.45037C9.31842 8.66202 9.11647 8.92998 9.0155 9.02707C9.06793 8.9358 9.13977 8.75328 9.15919 8.63289C9.17861 8.5125 9.15531 8.36881 9.18832 8.20959C9.22133 8.05037 9.22133 7.9358 9.38055 7.65813C9.53977 7.38046 9.81162 6.41541 9.81162 6.41541L10.398 6.229L10.5747 6.64842Z" fill="#B6933F"/>
<path d="M10.1515 6.29325C10.1515 6.29325 9.97478 6.54762 9.92623 6.77286C9.87769 6.9981 9.92235 6.97868 9.89322 7.08936C9.8641 7.20004 9.89322 7.29519 9.89322 7.29519C9.89322 7.29519 9.97089 7.15538 10.1379 7.05441C10.3049 6.95344 10.4408 6.8816 10.5223 6.79616C10.6039 6.7049 10.6719 6.55538 10.8486 6.44082C10.7767 6.43111 10.6757 6.3981 10.6563 6.40199C10.7282 6.32043 10.9437 6.19616 11.1612 6.04665C11.3767 5.89325 11.3631 5.83111 11.7126 5.67772C11.5981 5.69713 11.5437 5.66801 11.4486 5.67772C11.4874 5.59616 11.6214 5.55733 11.7553 5.42335C11.8893 5.28937 11.6699 5.09131 11.6699 5.09131L10.6466 5.71073L10.1515 6.29325Z" fill="#C49937"/>
<path d="M7.3728 5.83104L7.3961 5.64463L7.6893 5.17473L7.9961 4.34949V3.22133L7.9728 2.5689L8.02134 2.14172L8.05823 2.0058L8.09707 1.95337L8.34755 2.08347L8.69317 2.55337L8.72618 3.46017L8.39027 4.89123L7.43105 5.93783L7.3728 5.83104Z" fill="#DFC068"/>
<path d="M8.13596 1.90104C8.13596 1.90104 7.98256 1.90492 7.94955 2.54376C7.91655 3.18259 7.90101 3.51851 7.87771 3.83502C7.85441 4.15152 7.80004 4.34375 7.77286 4.53016C7.74373 4.71657 7.73014 4.97094 7.64276 5.12628C7.60392 5.19812 7.52237 5.42336 7.33014 5.5923C7.1146 5.7787 6.79227 5.9088 6.74373 5.91851C6.65829 5.93793 6.22528 5.98065 6.04858 6.07773C5.98644 6.11074 5.87965 6.14958 5.7612 6.26026C5.52625 6.47191 5.21363 6.85055 4.98838 7.30686C4.64275 7.98841 4.29712 9.91268 4.29712 9.91268L4.37479 9.78258C4.37479 9.78258 4.3845 9.60977 4.55731 9.30685C4.72625 9.00394 4.6777 8.66414 4.91265 8.08355C5.00392 7.8622 5.11848 7.57482 5.25829 7.33016C5.47965 6.9321 5.74761 6.59035 6.01751 6.40394C6.45829 6.10103 6.94373 6.03501 6.94373 6.03501L7.46606 5.68938C7.46606 5.68938 7.55732 5.51268 7.67771 5.31074C7.84664 5.02725 8.06218 4.71074 8.10878 4.25055C8.18062 3.569 8.00781 3.1224 8.01752 2.71851C8.02723 2.31463 8.03111 2.01755 8.11266 1.9457C8.19422 1.87386 8.13596 1.90104 8.13596 1.90104Z" fill="#A88F33"/>
<path d="M8.13598 4.94949C8.13598 4.94949 8.36705 4.3825 8.47191 3.87959C8.49132 3.77861 8.53016 3.67764 8.53987 3.59609C8.58841 3.12036 8.602 2.92425 8.53987 2.66405C8.49132 2.47182 8.30492 2.299 8.20783 2.16502C8.11268 2.02522 8.06802 1.97279 8.08744 1.94366C8.10686 1.91454 8.18259 1.86599 8.25637 1.87182C8.32822 1.8757 8.51463 1.89124 8.66997 2.06405C8.81948 2.23687 8.93793 2.82327 8.93793 2.82327L9.0622 3.59609L9.37871 4.57085L8.13598 4.94949Z" fill="#C99E3D"/>
<path d="M10.301 4.35923C10.301 4.35923 10.2583 4.37865 10.1807 4.35923C10.1845 4.39806 10.1768 4.47379 10.103 4.52234C10.0214 4.48933 9.25832 4.55535 9.25832 4.55535C9.25832 4.55535 8.90298 4.49321 8.7923 4.02331C8.71463 3.71068 8.85055 3.27962 8.80589 2.99612C8.73793 2.57865 8.64279 2.49709 8.63308 2.367C8.62337 2.2369 8.61366 2.20389 8.61366 2.12234C8.57094 2.11263 8.5457 2.09903 8.50298 2.09903C8.49327 2.0602 8.51269 2.02719 8.46997 1.95923C8.49327 1.96894 8.6525 1.98835 8.8389 2.16505C8.9923 2.30874 8.9923 2.36117 9.0156 2.3903C9.04473 2.41942 9.27968 2.62136 9.38065 2.82136C9.48163 3.02136 9.67774 3.66214 9.7224 3.767C9.736 3.80971 9.76512 3.85243 9.83697 3.94952C9.94959 4.08933 10.1146 4.32039 10.301 4.35923Z" fill="#B58634"/>
<path d="M9.04272 2.3999C9.11457 2.51447 9.24855 2.74553 9.35923 2.99019C9.4738 3.24845 9.54176 3.4601 9.68545 3.63291C9.60778 3.40767 9.46991 2.96495 9.38836 2.80767C9.2971 2.64068 9.11069 2.46204 9.04272 2.3999Z" fill="#A88F33"/>
<path d="M7.72232 5.59229C7.72232 5.59229 7.5262 5.64083 7.16115 5.83306C7.04076 5.8952 6.9262 5.94762 6.81552 5.99617C6.52814 6.12627 6.2194 6.24665 5.97474 6.31267C5.99416 6.33597 6.00387 6.34568 6.00387 6.34568C6.00387 6.34568 6.00387 6.44083 6.05629 6.4952C6.02717 6.52432 5.63882 6.7884 5.75338 7.6719C5.83105 7.64277 5.92231 7.60393 5.93591 7.60393C5.95921 7.60782 5.96503 7.6719 5.99416 7.6719C6.02329 7.6719 6.11843 7.63306 6.2194 7.50296C6.21552 7.55539 6.15727 8.08355 6.46989 8.43889C6.52814 8.37092 6.67571 8.14568 6.67571 8.14568L6.6796 8.07384C6.6796 8.07384 6.69319 7.82335 6.77474 7.59423C6.8563 7.36316 7.01552 7.19617 7.01552 7.19617L7.84659 6.00976L7.72232 5.59229Z" fill="#E6C367"/>
<path d="M6.94567 7.33404C6.94567 7.33404 6.88742 7.37676 6.8214 7.39617C6.80781 7.34763 6.78839 7.18064 6.90295 7.01753C7.03693 6.82142 7.33014 6.56705 7.41169 6.36511C7.46412 6.23501 7.44082 5.9088 7.90684 5.49132C8.37287 5.07384 8.55539 4.93015 8.55539 4.93015L9.3088 4.55151L10.235 4.91656L9.77482 6.72045L9.41754 7.56511L7.99616 7.29714L6.94567 7.33404Z" fill="#DCBA5A"/>
<path d="M7.4874 6.84461L7.66409 6.62325V6.46597C7.66409 6.46597 7.86021 6.41354 8.07186 6.19801C8.28351 5.98247 8.57671 5.56888 8.83496 5.59412C9.09321 5.62325 9.11845 6.15529 9.12816 6.3048C9.13787 6.45432 9.17087 6.79412 9.2233 6.97665C9.28155 7.15917 8.59418 7.85043 8.59418 7.85043L8.12817 8.20577L7.4874 6.84461Z" fill="#E9CE77"/>
<path d="M8.03491 8.68746C8.03491 8.68746 8.1786 8.46222 8.07375 8.41367C8.13588 8.27387 8.25044 8.12629 8.25044 8.12629C8.25044 8.12629 8.332 7.92435 8.59607 7.67581C8.86014 7.42532 9.02325 7.26221 9.06597 7.09522C9.10868 6.92629 9.10869 6.76318 9.10869 6.76318C9.10869 6.76318 9.16111 6.8059 9.19995 6.82532C9.24266 6.84474 9.4446 7.01173 9.41548 7.34765C9.38635 7.68357 9.26208 7.82338 9.26208 7.82338C9.26208 7.82338 9.14169 7.94377 9.05626 8.0059C8.965 8.06804 8.93199 8.13989 8.77859 8.14571C8.80189 8.12629 8.83102 8.11658 8.83102 8.11658C8.83102 8.11658 8.6718 8.09717 8.58636 8.17484C8.50093 8.25251 8.3184 8.49134 8.22714 8.56319C8.13588 8.62144 8.03491 8.68746 8.03491 8.68746Z" fill="#CDAE50"/>
<path d="M14.4912 4.91064C14.4912 4.91064 14.1844 4.78636 13.7767 4.77083C13.3689 4.75724 12.7728 4.78054 12.1883 4.78442C11.5592 4.78831 10.9883 4.56889 10.1961 4.53005C10.066 4.45238 9.73589 4.11258 8.70288 4.83297C8.76502 4.82908 9.45239 4.67374 9.69123 4.97277C9.932 5.26986 9.86404 5.77471 9.83103 5.8951C9.7689 6.16306 9.56696 6.55335 9.4854 6.82714C9.40385 7.10093 9.42327 7.24462 9.36501 7.43685C9.30676 7.62908 9.17861 7.72423 9.25434 7.94559C9.35531 7.88345 9.40773 7.88345 9.57666 7.50481C9.7456 7.12617 9.71064 6.85627 9.99026 6.53588C10.264 6.21355 10.7204 5.77277 10.8932 5.66209C11.066 5.55141 12.4427 4.83685 13.8834 5.5184C14.231 5.48151 14.4912 4.91064 14.4912 4.91064Z" fill="#D2A83E"/>
<path d="M9.2835 4.6466C9.2835 4.6466 9.27962 4.61359 9.27379 4.60388C9.25049 4.55534 9.22136 4.52621 9.22136 4.52621C9.22136 4.52621 8.87962 4.46408 8.7068 4.48349C8.40389 4.5165 8.13011 4.89126 8.00195 5.08349C7.87186 5.27573 7.71457 5.57282 7.54176 5.72621C7.54564 5.70291 7.53205 5.6835 7.53205 5.6835C7.53205 5.6835 7.54176 5.69709 7.52234 5.7165C7.50292 5.73592 7.50292 5.74563 7.51263 5.75534L7.54176 5.78447C7.55147 5.78447 7.81943 5.66408 8.18448 5.32427C8.57282 4.96893 8.86991 4.78641 9.02525 4.72427C9.14369 4.6699 9.2835 4.6466 9.2835 4.6466Z" fill="#C29637"/>
<path d="M15.9126 3.18628C15.9126 3.18628 15.8505 3.26395 15.7728 3.34939C15.6 3.53191 15.3747 3.73774 15.1825 3.94939C15 4.15133 14.7942 4.30861 14.5631 4.57269C14.332 4.83676 14.0641 5.12997 13.9961 5.21541C13.934 5.30084 13.8854 5.44065 13.8854 5.51249C13.8524 5.48919 13.8136 5.46395 13.8136 5.46395C13.8136 5.46395 13.833 5.50278 13.8718 5.54939C13.9204 5.61735 13.9961 5.70278 14.0349 5.75521C14.0971 5.84065 14.1301 5.94162 14.1359 5.97657C14.1592 5.98045 14.3087 6.00958 14.4951 5.70278C14.6815 5.39599 14.9262 5.06007 14.9262 5.06007L15.3145 4.48337L15.5592 3.99405L15.866 3.44647L15.9126 3.18628Z" fill="#AC8132"/>
<path d="M16.3107 2.79419C16.3107 2.79419 16.0757 2.98642 15.9845 3.10099C15.8932 3.21555 15.6777 3.51846 15.6777 3.51846L15.7553 3.50876L16.1495 3.15924L16.3029 2.88545L16.3107 2.79419Z" fill="#A88F33"/>
<path d="M16.2388 18.2252C16.2388 18.2252 16.2349 18.066 16.3242 17.9708C16.4155 17.8757 16.6466 17.7359 16.8718 17.2116C17.0971 16.6893 17.1223 16.5689 17.1223 16.5689C17.1223 16.5689 16.7184 16.9145 16.4699 16.9961C16.5281 16.8757 16.5611 16.7903 16.5903 16.7281C16.5572 16.699 16.4174 16.666 16.4038 16.6505C16.4815 16.5728 16.5242 16.3825 16.6815 16.2563C16.8835 16.1029 17.2524 15.8388 17.5398 15.6039C17.8271 15.3689 18.3903 14.8213 18.4621 14.6621C18.5048 14.7242 18.5145 14.7631 18.5145 14.7631C18.5145 14.7631 18.231 15.132 18.0835 15.367C17.9534 15.5689 17.9631 15.6835 17.9631 15.6835L18.231 15.5689C18.231 15.5689 18.3087 15.8563 17.9572 16.2932C18.1106 16.2349 18.1728 16.2699 18.2602 16.2213C18.1165 16.3126 17.9184 16.4369 17.732 16.7786C17.5495 17.1204 17.3009 17.5184 16.8815 17.767C16.4737 18.0291 16.2388 18.2252 16.2388 18.2252Z" fill="#A67A2E"/>
<path d="M15.1864 5.11274C15.1864 5.11274 15.0272 5.44478 15.0039 5.70303C15 5.76516 14.9844 5.81371 14.9844 5.88555C14.9805 6.11662 14.998 6.37487 14.9456 6.49526C14.9262 6.44672 14.9165 6.41371 14.8971 6.39429C14.8679 6.47585 14.8155 6.73022 14.7728 6.82536C14.7534 6.76322 14.7106 6.54769 14.7145 6.29332C14.7184 6.03895 14.7242 5.99041 14.7242 5.93798C14.7145 6.01565 14.6621 6.1205 14.6427 6.18264C14.6135 6.13021 14.5805 6.06225 14.5417 6.00594C14.5184 6.04478 14.4893 6.10109 14.464 6.13021C14.4601 6.10691 14.4504 6.04478 14.4446 5.9574C14.4407 5.85643 14.4349 5.72633 14.4407 5.69914C14.4504 5.64672 14.532 5.44089 14.7048 5.25254C14.9106 5.0273 15.1223 4.59429 15.1844 4.46031C15.2466 4.32633 15.5107 3.76904 15.5107 3.76904H15.7126L15.4194 4.43701C15.4194 4.43701 15.2427 4.80206 15.1514 4.93604C15.0602 5.07002 14.8679 5.45448 14.7825 5.604C14.8446 5.52245 14.8971 5.47973 14.9592 5.40206C15.0194 5.34769 15.1864 5.11274 15.1864 5.11274Z" fill="#8C6228"/>
<path d="M16.3146 2.76904C16.3146 2.76904 16.2757 2.90885 16.1612 3.04671C16.0408 3.1904 15.7825 3.38264 15.6563 3.53603C15.5417 3.68555 15.3107 4.09332 15.4155 4.57681C15.4544 4.47196 15.5262 4.26419 15.7184 4.02924C15.9107 3.79429 16.1165 3.52438 16.2175 3.31467C16.3184 3.10302 16.332 2.93603 16.332 2.93603L16.3709 2.88749L16.3476 2.77681L16.3146 2.76904Z" fill="#CBA94C"/>
<path d="M20.2466 15.6486C20.2466 15.6486 20.1689 15.4369 20.1456 15.2447C20.1223 15.0525 20.1844 15.0136 20.1126 14.7942C20.0699 14.6602 19.9922 14.6796 19.9728 14.6602C19.9534 14.6408 19.9398 14.4389 19.9437 14.3282C19.9475 14.2175 19.9398 14.0738 19.9204 14.0117C19.8912 13.9884 19.8718 13.969 19.8291 13.8253C19.7805 13.6816 19.7572 13.6097 19.7339 13.567C19.7106 13.5243 19.6427 13.4855 19.6427 13.4428C19.6427 13.3573 19.7204 13.3127 19.7204 13.2894C19.7165 13.2408 19.6582 13.2796 19.6427 13.2661C19.6233 13.2428 19.6912 13.1029 19.666 13.0835C19.6563 13.0738 19.5883 13.1554 19.5708 13.1321C19.5514 13.1088 19.5281 12.8777 19.4932 12.7243C19.4602 12.5748 19.4252 12.4661 19.4213 12.4214C19.4174 12.3787 19.1534 11.6253 19.0893 11.4428C19.0272 11.2602 18.9786 11.0641 18.9592 10.9728C18.9398 10.8816 18.9262 10.6952 18.9165 10.7146C18.9068 10.734 18.9126 10.8292 18.8971 10.8253C18.8835 10.8214 18.8349 10.4894 18.8194 10.4369C18.8058 10.3845 18.7243 10.2059 18.7048 10.0777C18.6854 9.94761 18.6427 9.6078 18.6136 9.37673C18.5844 9.14567 18.5709 9.05052 18.5709 8.99227C18.5709 8.96314 18.5806 8.79615 18.5476 8.56897C18.5087 8.32431 18.433 8.02722 18.365 7.8544C18.2349 7.52819 17.8893 6.69324 17.8272 6.48547C17.8272 6.43304 17.8951 6.46217 17.8951 6.46217C17.8951 6.46217 18.0641 6.88547 18.1883 7.21168C18.3087 7.5379 18.4233 7.82528 18.4524 7.8544C18.4757 7.88353 18.6582 8.20392 18.7398 8.72819C18.8213 9.25246 18.8505 9.73596 18.899 10.0583C18.9223 10.2117 18.9417 10.3748 18.9903 10.5379C19.0427 10.7146 19.1242 10.8971 19.231 11.1767C19.3223 11.4117 19.3903 11.6078 19.4272 11.7767C19.4699 11.9923 19.4699 12.1554 19.4951 12.2622C19.5184 12.3534 19.5534 12.536 19.6349 12.8C19.7165 13.0641 19.8369 13.4039 19.9184 13.6156C20.0776 14.0389 20.1495 14.3923 20.1728 14.5806C20.1941 14.7748 20.266 15.4466 20.2466 15.6486Z" fill="#A88F33"/>
<path d="M16.3243 2.74574L16.3146 2.76904C16.3146 2.76904 16.3437 2.77875 16.3379 2.81758C16.3379 2.837 16.3379 2.91273 16.3282 2.9768C16.3185 3.04477 16.2991 3.09719 16.2952 3.13991C16.2952 3.23117 16.3088 3.33603 16.1806 3.59622C16.1418 3.66807 16.1185 3.7302 16.0991 3.77292C16.0505 3.87777 16.0408 3.89331 15.9981 3.94185C16.0661 3.90302 16.3107 3.74962 16.435 3.77292C16.3496 3.82146 16.2195 3.91661 16.1379 4.04088C16.1573 4.04477 16.2389 4.0603 16.369 4.04088C16.5845 4.00787 16.8253 3.9302 17.0369 3.94574C17.268 3.95933 17.1768 3.66807 17.1768 3.66807L16.9088 3.08166L16.4039 2.72632L16.3243 2.74574Z" fill="#BE9C44"/>
<path d="M17.6408 7.13789C17.6408 7.13789 17.4155 6.91264 17.3243 6.13983C17.233 5.36313 17.2524 4.21945 17.2524 4.21945L17.0699 3.77285C17.0699 3.77285 17.0311 3.47576 16.9359 3.36508C16.8408 3.2544 16.6524 3.06799 16.567 2.97673C16.4816 2.88547 16.3845 2.7612 16.3262 2.74178C16.3554 2.69324 16.4855 2.41945 16.9845 2.41557C17.4835 2.41168 17.6369 2.68935 17.6893 2.79032C17.7418 2.89129 17.9767 3.32819 18.0641 4.15925C18.1456 4.99032 18.1495 5.05245 18.1359 5.33983C18.1262 5.49905 18.0738 5.86799 17.9825 6.26216C17.899 6.59614 17.8078 6.96895 17.6408 7.13789Z" fill="#A17C34"/>
<path d="M16.934 7.79991C16.934 7.79991 17.0388 7.8135 17.1495 7.75137C17.2213 7.74748 17.4815 7.78049 17.6815 7.52612C17.6951 7.58438 17.7301 7.74166 17.6388 7.88146C17.6874 7.83292 17.7592 7.8135 17.7689 7.79991C17.7728 7.87175 17.8408 8.09311 17.5534 8.63097C17.631 8.54554 17.7223 8.54942 17.8039 8.53971C17.8077 8.64068 17.8621 8.98049 17.7184 9.16301C17.6233 9.28728 17.4679 9.24845 17.4679 9.24845C17.4679 9.24845 17.4718 9.20573 17.4679 9.16689C17.4641 9.11447 17.4446 9.06204 17.4582 9.02709C17.4388 9.01738 17.3573 8.98437 17.2563 8.88728C17.0874 8.72806 16.868 8.45622 16.8524 8.25428C16.833 8.02903 17.0349 7.98049 17.0349 7.98049C17.0349 7.98049 17.0116 7.96107 16.9922 7.92806C16.9825 7.89505 16.9728 7.84263 16.934 7.79991Z" fill="#8C6228"/>
<path d="M15.4369 5.35716C15.4369 5.35716 15.4272 5.34357 15.3748 5.4057C15.3845 5.34357 15.3942 5.28532 15.3981 5.229C15.4175 5.18629 15.4505 5.13386 15.4932 5.08532C15.4641 5.14357 15.4447 5.19599 15.4447 5.19599C15.4447 5.19599 15.5165 5.06201 15.6214 4.98046C15.6932 4.92221 15.7845 4.89502 15.8233 4.84066C15.866 4.7824 15.8563 4.77269 15.866 4.76299C15.866 4.76299 15.9612 4.70085 16.1068 4.51832C16.1262 4.49502 16.1553 4.46978 16.1748 4.44648C16.2078 4.43289 16.2854 4.39794 16.3767 4.35133C16.4718 4.29891 16.5786 4.22706 16.6447 4.19794C16.7748 4.13968 16.9126 4.14551 16.9767 4.05425C17.0252 4.04066 17.0777 3.89502 17.068 3.77075C17.1398 3.79988 17.5087 4.029 17.6349 4.52998C17.7262 4.88532 17.5631 5.43289 17.4951 5.69697C17.4272 5.96104 17.4175 6.15716 17.3223 6.27755C17.2019 6.43677 16.8136 6.66201 16.7184 6.77269C16.6369 6.86396 16.3922 7.09502 16.4019 7.26201C16.4116 7.38629 16.565 7.45425 16.5981 7.47755C16.6311 7.50085 16.6311 7.52998 16.6932 7.51638C16.7553 7.50279 16.7786 7.47366 16.8039 7.47366C16.833 7.47755 16.833 7.48337 16.8466 7.48337C16.8602 7.48337 16.8757 7.47949 16.8757 7.47949C16.8757 7.47949 16.866 7.65619 16.4524 7.71056C16.4233 7.71444 16.3942 7.72415 16.3573 7.72998C16.4058 7.70667 16.4349 7.70668 16.4874 7.63483C16.4291 7.62512 16.2621 7.61541 16.2194 7.60182C16.233 7.57852 16.2777 7.51638 16.3146 7.48726C16.3476 7.45813 16.3107 7.44842 16.2816 7.46396C16.268 7.47366 16.2039 7.51638 16.1379 7.57464C16.0893 7.61735 16.0466 7.67561 15.9689 7.72803C15.9456 7.65036 15.9495 7.50279 16.0408 7.39599C16.0175 7.39988 15.9728 7.46784 15.9301 7.45425C15.9262 7.42512 15.9204 7.32998 15.9437 7.2426C15.967 7.15522 16.0932 7.00182 16.0932 7.00182L16.7029 5.9125L16.833 5.08726L15.4369 5.35716Z" fill="#92723A"/>
<path d="M15.4039 5.40384C15.4039 5.40384 15.3709 5.42714 15.4369 5.4718C15.4272 5.48539 15.4039 5.53394 15.3748 5.56695C15.3418 5.60578 15.3068 5.62908 15.2932 5.66209C15.2641 5.73006 15.2408 5.77666 15.2408 5.80578C15.2408 5.83491 15.2311 6.02132 15.1495 6.14171C15.1204 6.18443 15.0874 6.25627 15.0641 6.30481C15.0155 6.39025 14.9728 6.45821 14.9631 6.49705C14.9437 6.56501 14.9301 6.75142 14.9301 6.75142C14.9301 6.75142 14.9728 6.69899 14.9884 6.67957C14.9651 6.72812 14.9398 6.78054 14.9029 6.81938C14.9262 6.79996 14.9942 6.75142 15.1087 6.65045C15.268 6.51647 15.5165 6.29122 15.8194 6.11258C15.7282 6.14559 15.6505 6.14559 15.5884 6.1553C15.6369 6.10676 16.0738 5.59413 16.3029 5.54559C16.3262 5.51646 16.3223 5.48345 16.3223 5.48345L16.1262 5.46404L15.7282 5.54947L15.6699 5.24268L15.4039 5.40384Z" fill="#B18E3E"/>
<path d="M16.0368 7.15146C16.0368 7.15146 15.9844 7.20389 15.9359 7.33399C15.9223 7.3204 15.8776 7.27185 15.8407 7.20389C15.7689 7.0835 15.6582 6.93011 15.4 7.01748C15.3961 6.93593 15.3903 6.89321 15.4 6.83496C15.4427 6.82525 15.5728 6.7204 15.7029 6.567C15.7941 6.46214 15.8796 6.34176 15.9378 6.18836C15.9767 6.15923 16.0427 6.11069 16.13 6.05438C16.2543 5.96894 16.4038 5.85244 16.4271 5.72234C16.3689 5.74564 16.2446 5.80389 16.0582 5.79418C16.13 5.76117 16.2407 5.72622 16.2271 5.58253C16.2563 5.56312 16.2796 5.54952 16.2796 5.54952C16.2796 5.54952 16.2563 5.53982 16.2116 5.53982C16.2077 5.52622 16.2019 5.50681 16.1689 5.51651C16.1359 5.52622 16.13 5.52622 16.1262 5.53982C16.1126 5.5437 16.0679 5.53982 16.0349 5.56312C16.0019 5.58642 15.9106 5.66409 15.8757 5.67768C15.8893 5.65438 15.9087 5.61943 15.9087 5.61943C15.9087 5.61943 15.8135 5.62914 15.7456 5.65826C15.6213 5.70098 15.4776 5.77865 15.332 5.85438C15.3456 5.83108 15.3514 5.81554 15.3611 5.81166C15.3708 5.80778 15.3941 5.80195 15.3941 5.79807C15.3941 5.79418 15.3844 5.75923 15.3903 5.74564C15.3941 5.73205 15.4757 5.57282 15.5436 5.48156C15.6116 5.3903 15.6252 5.2602 15.6252 5.2602L15.9223 5.11069L16.7572 4.91846L17.299 4.95147L17.231 5.32622L16.9106 5.98059L16.6368 6.57671L16.3242 6.94176L16.0368 7.15146Z" fill="#543E26"/>
<path d="M17.3903 5.5301C17.3903 5.5301 17.0641 5.93398 16.9728 5.99612C17.0311 5.87184 17.3903 5.13204 17.5204 4.92621C17.4913 4.90291 17.4524 4.90291 17.5437 4.54175C17.466 4.72427 17.4388 4.81942 17.3748 4.86796C17.3126 4.91651 17.3029 4.90097 17.2602 4.90097C17.2738 4.87767 17.2699 4.85243 17.2699 4.85243C17.2699 4.85243 16.9961 4.81942 16.8097 4.81942C16.6233 4.81942 16.2524 4.92039 16.0466 5.00194C15.8835 5.0699 15.7922 5.0699 15.734 5.11262C15.6757 5.16117 15.6427 5.21359 15.6136 5.22719C15.5903 5.24078 15.4796 5.27573 15.4544 5.31262C15.4311 5.35146 15.3922 5.39417 15.3922 5.40388C15.3922 5.41359 15.3825 5.42718 15.4117 5.41748C15.4214 5.41359 15.4932 5.37476 15.5748 5.32621C15.6854 5.26408 15.8194 5.19223 15.9165 5.14952C16.1942 5.03884 16.2816 5.05825 16.4058 5.03495C16.5359 5.01165 16.7223 4.95728 16.8466 4.95728C16.9709 4.9534 17.2058 4.95728 17.2602 4.96699C17.2369 4.98641 17.2175 5.00971 17.2272 5.09126C17.2272 5.11456 17.2078 5.13981 17.1884 5.19612C17.1301 5.35534 17.0194 5.61942 16.9573 5.7534C16.8718 5.93592 16.7748 6.08932 16.7262 6.18447C16.6777 6.27961 16.5728 6.5301 16.468 6.66408C16.3631 6.79806 16.3087 6.87961 16.2757 6.90874C16.2427 6.93786 16.0078 7.11068 16.0252 7.17282C16.068 7.15922 16.3379 7.05825 16.534 6.83689C16.7301 6.61553 16.7689 6.48155 16.9223 6.36117C17.0757 6.24078 17.1961 6.03884 17.268 5.87184C17.3282 5.71651 17.3146 5.66796 17.3903 5.5301Z" fill="#806031"/>
<path d="M10.3593 8.54374C10.3593 8.54374 10.3165 8.72044 10.2194 8.80782C10.1243 8.89325 9.95537 8.96704 9.93595 9.11073C9.91265 9.25442 10.1049 9.32626 10.1049 9.32626C10.1049 9.32626 10 9.49908 10 9.62918C10 9.76316 9.99614 9.7884 10.0097 9.91655C9.98644 9.93015 9.9709 9.95539 9.9709 9.95539C9.9709 9.95539 9.98061 10.0797 10.0758 10.1573C10.1709 10.235 10.2525 10.2816 10.301 10.2622C10.3107 10.2816 10.3204 10.3107 10.3204 10.3107C10.3204 10.3107 10.3923 10.1282 10.4408 9.96898C10.4894 9.80587 10.5321 9.82918 10.5515 9.60976C10.5709 9.3884 10.7826 9.01364 10.7826 9.01364L10.9263 8.69131L10.6913 8.50879L10.3593 8.54374Z" fill="#B6903C"/>
<path d="M10.7961 8.86011C10.7961 8.86011 10.7243 8.93195 10.6621 9.01933C10.6 9.10477 10.5515 9.18244 10.4602 9.21544C10.3689 9.24845 10.3107 9.24845 10.3165 9.33972C10.3223 9.43098 10.4078 9.46981 10.4563 9.51641C10.5087 9.56496 10.5515 9.64651 10.5282 9.73777C10.5573 9.72418 10.6097 9.70865 10.6583 9.60379C10.7068 9.49894 11.0466 8.86011 11.0466 8.86011H10.7961Z" fill="#685026"/>
<path d="M12.134 7.38655C12.134 7.38655 12.1631 7.30888 12.134 7.25257C12.1049 7.19432 11.9282 7.1749 11.8408 7.10888C11.7496 7.04092 11.6389 6.99432 11.5476 7.02345C11.5612 6.99044 11.6156 6.91859 11.5709 6.90306C11.5282 6.88947 11.369 6.96131 11.3262 6.99432C11.2835 7.02733 11.1864 7.06616 11.167 7.08946C11.1476 7.11277 11.1146 7.15743 11.0952 7.13801C11.0758 7.12442 11.0661 7.08946 11.033 7.10888C11 7.1283 10.8408 7.2584 10.8117 7.33412C10.7826 7.40985 10.7165 7.57878 10.5185 7.77101C10.3224 7.96325 10.235 8.08752 10.2932 8.15936C10.3515 8.23121 10.3787 8.17878 10.3884 8.24091C10.3923 8.27004 10.3981 8.34577 10.3787 8.42344C10.3554 8.52441 10.3165 8.61955 10.369 8.63897C10.5029 8.68169 10.633 8.60013 10.6622 8.62538C10.7204 8.6778 10.6292 8.86615 10.767 8.90305C10.9068 8.94188 11.0447 8.87004 11.0447 8.87004L11.5534 8.59625L12.0428 8.338L12.2932 7.84286L12.1593 7.42927L12.134 7.38655Z" fill="#D4B968"/>
<path d="M11.6544 8.56903C11.6544 8.56903 11.569 8.43893 11.6738 8.32437C11.7787 8.2098 11.9282 8.16126 11.9865 8.08942C11.967 8.06612 11.9437 8.06029 11.9437 8.06029C11.9437 8.06029 11.9962 7.95544 12.1127 7.90107C12.0835 7.87194 12.0447 7.84864 12.002 7.84864C11.9068 7.84864 11.8486 7.90689 11.7612 7.90689C11.6758 7.90689 11.6661 7.86417 11.6661 7.86417C11.6661 7.86417 11.8098 7.85058 11.7962 7.7865C11.7826 7.71854 11.7573 7.71854 11.7573 7.71854C11.7573 7.71854 12.035 7.60398 12.0835 7.54184C12.1321 7.47971 12.1263 7.40786 12.136 7.37874C12.169 7.37874 12.3612 7.27777 12.4389 7.32049C12.5166 7.3632 12.4622 7.47971 12.4622 7.47971C12.4622 7.47971 12.6971 7.30301 12.8175 7.13019C12.9224 7.1399 12.9709 7.05835 13.0486 7.05835C13.1437 7.05835 13.2932 7.18845 13.3224 7.46612C13.3418 7.62534 13.3709 7.7166 13.3418 7.99815C13.3282 8.15738 13.3321 8.49718 13.3806 8.66611C13.4136 8.80009 13.4913 8.7865 13.4913 8.7865C13.4913 8.7865 13.4777 8.84476 13.4233 8.89136C13.3709 8.9399 13.3651 9.06806 13.3709 9.1166C13.3806 9.16514 13.4 9.22145 13.4 9.22145C13.4 9.22145 13.3379 9.2933 13.3224 9.34184C13.3088 9.39039 13.2447 9.4234 13.1981 9.4234C13.1496 9.4234 13.1748 9.41951 13.1127 9.4234C13.0505 9.42728 13.0311 9.43699 12.9923 9.4234C12.9534 9.4098 12.9243 9.39427 12.9399 9.27C12.9534 9.14573 12.4602 8.85641 12.4602 8.85641L11.6544 8.56903Z" fill="#CCA849"/>
<path d="M10.7281 9.79608C10.7281 9.79608 10.9048 10.031 11.631 10.031C11.9767 10.031 12.097 9.99803 12.1689 9.97861C12.2466 9.95919 12.5378 9.84463 12.831 9.49899C13.0951 9.18637 13.0368 9.05821 13.0368 9.05821L12.8834 9.03491L12.3844 9.10287L10.9068 9.73201L10.7281 9.79608Z" fill="#585136"/>
<path d="M11.2699 9.85431C11.2699 9.85431 10.6408 9.99412 10.6408 9.59606C10.6408 9.20771 11.0291 8.79995 11.1262 8.7281C11.2272 8.65626 11.468 8.57471 11.468 8.57471H12.0486L12.1592 8.86791L12.1107 9.50091L11.2699 9.85431Z" fill="#252211"/>
<path d="M11.8505 8.69324C11.8505 8.69324 11.7301 8.58256 11.4563 8.73207C11.1825 8.88158 10.9611 9.19226 10.9476 9.47575C10.934 9.72623 11.1534 9.91264 11.4951 9.92235C11.7495 9.93206 11.9029 9.90293 11.9806 9.88351C11.9611 9.86021 11.8602 9.734 11.8602 9.734L11.8505 8.69324Z" fill="#C3B378"/>
<path d="M11.7321 8.75534C11.7321 8.75534 11.703 8.73204 11.6175 8.77864C11.5457 8.81747 11.4408 8.91844 11.3593 8.99029C11.3068 9.03301 11.2738 9.05243 11.2447 9.08544C11.1243 9.22913 11.0233 9.46408 11.0816 9.58058C11.1399 9.69515 11.3321 9.83107 11.8214 9.73981L11.7321 8.75534Z" fill="#E6D89C"/>
<path d="M11.5728 8.99618C11.5728 8.99618 11.4951 9.11657 11.4951 9.3088C11.4951 9.50491 11.6058 9.81753 12.0136 9.84083C12.3262 9.86025 12.5359 9.39035 12.7631 9.20783C12.9359 9.06802 13.0408 9.06414 13.0408 9.06414C13.0408 9.06414 12.8641 8.87191 12.3922 8.62336C11.9262 8.37288 11.4039 8.33987 11.1204 8.72433C11.2544 8.71463 11.6874 8.60395 11.6874 8.60395L11.899 8.67191L11.5728 8.99618Z" fill="#252211"/>
<path d="M12.1825 9.25061C12.1689 9.22148 12.1592 9.18265 12.2155 9.17294C12.2738 9.16323 12.2971 9.16905 12.3165 9.21177C12.3359 9.25449 12.3553 9.28944 12.3262 9.30692C12.2971 9.32245 12.2214 9.30692 12.1825 9.25061ZM12.0913 8.97682C12.0913 8.97682 12.0718 8.99042 12.0815 8.96323C12.0854 8.93022 12.1107 8.87197 12.1728 8.88556C12.2349 8.89916 12.2214 8.96712 12.2116 8.98653C12.2019 9.00595 12.1495 9.03896 12.1107 9.02537C12.0718 9.01178 12.0913 8.97682 12.0913 8.97682Z" fill="#6F674D"/>
<path d="M6.83496 9.10105C6.83496 9.10105 6.98836 9.21561 7.167 9.21172C7.3437 9.20784 7.57088 9.02532 7.67574 8.90882C7.73787 8.84086 7.7903 8.76902 7.84855 8.71271C7.8971 8.66416 7.93011 8.64086 7.95341 8.60785C7.98642 8.56902 8.02137 8.49718 8.03884 8.47388C7.99612 8.50689 7.93399 8.56514 7.86991 8.60397C7.80778 8.64281 7.67379 8.71465 7.61943 8.73406C7.567 8.75348 7.02331 9.04085 7.02331 9.04085L6.83496 9.10105Z" fill="#AC924C"/>
<path d="M7.06989 7.66604C7.06989 7.66604 7.15532 7.60778 7.32037 7.57089C7.4796 7.53206 7.79999 7.50293 7.79999 7.50293L8.06407 7.61749L8.16892 8.01555L7.97669 8.42914L7.73203 8.58254L7.45435 8.13594L7.06989 7.66604Z" fill="#9F8E57"/>
<path d="M6.72426 8.02145L6.633 8.08941C6.633 8.08941 6.6563 8.04669 6.67571 7.91659C6.69513 7.78649 6.7961 7.46999 6.94368 7.28747C7.09125 7.10494 7.08737 7.11465 7.08737 7.11465C7.08737 7.11465 7.04465 7.10494 7.0097 7.13407C7.02912 7.09135 7.15339 6.93795 7.27766 6.86028C7.40193 6.78261 7.45048 6.75931 7.58058 6.82145C7.71067 6.88358 7.74368 6.91659 7.83883 6.91271C7.93398 6.90883 8.01553 6.80785 8.01553 6.80785C8.01553 6.80785 8.03495 6.86999 7.9631 7.01368C7.89126 7.15737 7.60776 7.45057 7.60776 7.45057L7.01746 7.85446L6.72426 8.02145Z" fill="#EAC970"/>
<path d="M7.16116 7.6174C7.16116 7.6174 7.58835 7.67565 7.71845 7.55527C7.72233 7.56886 7.73787 7.56886 7.73787 7.57857C7.73787 7.58828 7.72816 7.59798 7.72816 7.59798C7.72816 7.59798 7.75146 7.5941 7.77088 7.5941C7.7903 7.59798 7.80389 7.60381 7.82331 7.60381C7.84272 7.60381 7.86602 7.59993 7.86602 7.59993C7.86602 7.59993 7.86214 7.63294 7.8369 7.64847C7.85632 7.64847 7.87573 7.65235 7.87573 7.66789C7.87573 7.68342 7.87962 7.73002 7.85632 7.73973C7.82719 7.74944 7.79806 7.73585 7.79806 7.73585C7.79806 7.73585 7.79806 7.78828 7.82719 7.8407C7.86602 7.91255 7.94758 7.9941 8.05826 7.9708C8.05826 7.9708 8.11651 8.11061 7.87185 8.42129C7.83884 8.46401 7.80389 8.52226 7.76117 8.57081C7.72816 8.64848 7.72233 8.68537 7.72233 8.68537C7.72233 8.68537 8.13593 8.52615 8.25438 8.16304C8.37477 7.79799 8.39807 7.43876 8.37477 7.10284C8.37088 7.00769 8.35535 6.93973 8.33205 6.89118C8.2738 6.77079 8.11069 6.79021 8.04467 6.85817C7.94952 6.95332 7.7903 7.19022 7.56893 7.35332C7.34369 7.51643 7.33398 7.54556 7.16116 7.6174Z" fill="#D7BC6B"/>
<path d="M6.64853 8.1417C6.64853 8.1417 6.56698 8.19024 6.52426 8.37277C6.48155 8.55917 6.5631 8.78636 6.6097 8.8582C6.65824 8.93005 6.7631 9.12616 6.98446 9.13587C7.033 9.13587 7.08931 9.12616 7.14368 9.10286C7.22135 9.06985 7.29708 9.01742 7.35921 8.96888C7.45436 8.89704 7.53203 8.8349 7.52232 8.82907C7.49902 8.81937 6.93591 8.35335 6.93591 8.35335L6.72426 8.11646L6.64853 8.1417Z" fill="#585136"/>
<path d="M7.18057 8.91446C7.18057 8.91446 7.29513 8.90475 7.3631 8.86204C7.43106 8.81932 6.96503 8.35718 6.96503 8.35718L6.99804 8.85621L7.18057 8.91446Z" fill="#453A25"/>
<path d="M6.68541 8.10688C6.68541 8.10688 6.62716 8.21756 6.62716 8.24668C6.61745 8.34183 6.64658 8.64086 6.66988 8.736C6.69318 8.83698 6.8194 8.99037 6.9825 8.99037C7.08347 8.99037 7.22328 8.92824 7.22328 8.9127C7.22328 8.89329 7.07959 8.87387 7.04075 8.80202C7.01745 8.76319 7.00774 8.66804 7.00192 8.57095C6.99803 8.50882 6.99803 8.44086 7.02134 8.41756C7.07376 8.3593 7.08347 8.19231 7.08347 8.19231L7.26988 7.84668H7.02522L6.73202 8.0292L6.68541 8.10688Z" fill="#84754B"/>
<path d="M6.61365 8.21362C6.61365 8.21362 6.80588 7.95925 6.9787 7.901C7.15151 7.84274 7.22918 7.87769 7.22918 7.87769L7.12821 8.13595L6.98452 8.29517L6.99423 8.37672C6.99423 8.37672 6.97093 8.59226 7.11462 8.74177C7.25831 8.89129 7.3651 8.88546 7.42724 8.88546C7.48937 8.88546 7.66801 8.83304 7.75928 8.6175C7.84083 8.41556 7.90879 8.15731 7.74568 7.89711C7.58646 7.63886 7.30491 7.62915 7.25054 7.62915C7.19617 7.63109 6.76899 7.65051 6.61365 8.21362Z" fill="#252211"/>
<path d="M11.5437 9.07779C11.4718 9.04478 11.5398 8.84283 11.6116 8.78069C11.6835 8.71856 11.7747 8.64671 11.934 8.637C11.9922 8.63312 12.0485 8.67001 12.0388 8.70885C12.0252 8.78069 11.9243 8.88167 11.833 8.95351C11.7068 9.05254 11.6252 9.11468 11.5437 9.07779Z" fill="#F7F7E7"/>
<path d="M7.6602 7.97656C7.71263 7.97268 7.7806 8.0154 7.79419 8.07171C7.80778 8.13385 7.76118 8.25812 7.6602 8.25812C7.57864 8.25812 7.53592 8.15715 7.53592 8.12802C7.53592 8.0989 7.54951 8.06977 7.55534 8.06006C7.55922 8.05423 7.56893 7.98627 7.6602 7.97656Z" fill="#F8F6DE"/>
<path d="M6.90291 8.02148C6.90291 8.02148 6.76893 8.08362 6.7068 8.21372C6.64466 8.34382 6.65826 8.47197 6.66797 8.52052C6.67767 8.56906 6.72622 8.68945 6.75923 8.73217C6.79224 8.77489 6.83689 8.80401 6.8699 8.80013C6.90291 8.79624 6.97087 8.70887 6.97087 8.65644C6.97087 8.60401 6.97476 8.38265 7.03883 8.26226C7.09514 8.14187 6.90291 8.02148 6.90291 8.02148Z" fill="#D4C38B"/>
<path d="M6.9223 8.01169C6.899 8.02528 6.86017 8.0447 6.86987 8.06994C6.87958 8.09324 6.96114 8.10878 6.99027 8.16509C7.02328 8.22334 7.02328 8.28547 7.01357 8.3146C7.02328 8.31071 7.0524 8.29518 7.08153 8.26606C7.12425 8.21751 7.17668 8.15149 7.22134 8.15149C7.25046 8.15149 7.27959 8.16509 7.30678 8.16509C7.3495 8.16509 7.39222 8.15149 7.39804 8.10684C7.40775 8.04858 7.31649 7.99616 7.26406 8.00587C7.27377 7.96703 7.28736 7.91072 7.24464 7.87189C7.20192 7.83306 7.06794 7.90102 7.03881 7.92043C7.00774 7.93985 6.9223 8.01169 6.9223 8.01169Z" fill="#E2D59D"/>
<path d="M10.0078 12.0913L10.2951 12.0059L10.3767 12.0641C10.3767 12.0641 10.435 12.1884 10.5262 12.2039C10.4971 12.2661 10.4214 12.3185 10.4252 12.3631C10.4291 12.4078 10.468 12.4408 10.468 12.4408C10.468 12.4408 10.2097 12.868 10.7184 13.2991C10.5981 13.3476 10.4447 13.4136 10.3631 13.4525C10.4214 13.4661 10.5456 13.4913 10.5981 13.5379C10.6505 13.5864 10.6505 13.6 10.699 13.6292C10.7476 13.6583 10.7767 13.6971 10.767 13.7146C10.734 13.6952 10.6233 13.6369 10.6039 13.6913C10.5845 13.7437 10.1243 13.7243 10.1243 13.7243L9.34757 13.8738C9.34757 13.8738 9.37669 13.7961 9.29514 13.7243C9.19999 13.6389 9.08349 13.7282 8.95921 13.633C8.79611 13.5088 8.79028 13.3651 8.73785 13.3107C8.79028 13.2777 8.89708 13.2292 9.15145 13.1961C9.14174 13.1767 9.10873 13.1185 9.12815 13.0661C9.15145 12.9981 9.24854 12.9554 9.21941 12.8738C9.26213 12.8641 9.28155 12.8641 9.38834 12.7301C9.48932 12.5961 9.55145 12.567 9.62912 12.5573C9.70679 12.5476 9.7534 12.5573 9.89709 12.4233C9.99806 12.3282 9.96505 12.2466 9.96505 12.2466C9.96505 12.2466 10.0311 12.2253 10.0078 12.0913Z" fill="#CBAC5A"/>
<path d="M9.15922 12.1339C9.1631 12.1145 9.17864 12.1048 9.28349 12.1145C9.38834 12.1242 10.0524 12.0524 10.233 12.0427C10.4155 12.0291 11.0582 12.0388 11.3709 12.1048C11.6835 12.1708 12 12.2485 12.1534 12.2873C12.3068 12.33 12.3553 12.3456 12.3495 12.365C12.3456 12.3844 12.3107 12.4038 12.2913 12.398C12.2718 12.3941 11.7631 12.2388 11.6058 12.2058C11.4485 12.1728 10.9048 12.0854 10.6078 12.0912C10.3301 12.0951 10.2194 12.0873 9.98446 12.1145C9.74951 12.1436 9.36116 12.1825 9.24466 12.1669C9.13009 12.1533 9.15339 12.1533 9.15922 12.1339Z" fill="#D6BC6F"/>
<path d="M10.7223 13.6563C10.7223 13.6563 11.1204 13.8718 11.2641 14.1359C11.3689 14.332 11.2019 14.4291 11.2019 14.4291C11.2019 14.4291 11.4272 14.4291 11.398 14.5534C11.3844 14.6311 11.0097 14.8408 10.7592 14.9514C10.5048 15.0621 10.5145 15.0563 10.3903 15.0757C10.2699 15.0951 9.93978 15.0369 9.87182 15.134C9.80386 15.2291 9.83299 15.3301 9.85241 15.3456C9.87182 15.3592 10.0291 15.3786 10.0291 15.3786C10.0291 15.3786 9.9961 15.4699 9.66988 15.4796C9.34367 15.4893 9.26211 15.5126 9.2427 15.5476C9.22328 15.5806 9.30483 15.5612 9.45435 15.5864C9.60386 15.6097 9.81357 15.6252 9.81357 15.6252C9.81357 15.6252 9.74561 15.6835 9.56891 15.7301C9.36697 15.7825 9.05046 15.8311 8.95532 15.8893C9.00386 15.9223 9.07571 15.9709 9.10872 15.9747C9.02716 15.9942 8.9126 16.0369 8.89318 16.0524C8.92231 16.0718 8.96114 16.0951 8.96114 16.0951C8.96114 16.0951 8.79804 16.2913 8.70289 16.3398C8.60775 16.3883 8.06017 16.6427 7.87182 16.5942C7.40192 16.4699 7.34367 15.9553 7.2291 15.9165C7.05629 15.8582 6.97474 15.9747 6.82134 15.8932C6.8893 15.8447 6.92619 15.8155 6.99804 15.7825C6.92037 15.7437 6.51843 15.4893 6.51843 15.4893C6.51843 15.4893 6.46988 15.3786 6.37862 15.2214C6.30095 15.0874 6.18639 14.9087 6.10095 14.7514C5.91454 14.4058 5.90483 14.2466 5.7359 14.0505C5.76503 14.0116 5.866 14.0175 5.866 14.0175L7.28153 14.4835L9.79221 14.5553L10.4446 13.6233L10.7223 13.6563Z" fill="#DFC677"/>
<path d="M7.00394 15.0777C7.00394 15.0777 7.02335 15.101 7.05636 15.1204C7.10491 15.1534 7.17675 15.1923 7.22529 15.2505C7.24471 15.2214 7.29325 15.169 7.37869 15.2505C7.46413 15.3321 7.57092 15.2738 7.63694 15.2932C7.7049 15.3165 7.70878 15.3262 7.70878 15.3262C7.70878 15.3262 7.74762 15.2932 7.83305 15.2583C7.88548 15.2389 7.94762 15.2253 8.01558 15.2059C8.07771 15.1923 8.14567 15.1728 8.19227 15.1728C8.23499 15.202 8.38839 15.3651 9.00392 15.1243C9.58449 14.8991 9.71847 14.8738 9.81556 14.9088C9.82527 14.8855 9.83498 14.8408 9.98449 14.8466C9.98449 14.7845 9.86022 14.5728 9.86022 14.5728L9.17479 14.3379H8.80003L7.67577 14.5437L7.05248 14.8991L7.00394 15.0777Z" fill="#C4A859"/>
<path d="M6.62915 14.6834C6.62915 14.6834 6.64274 14.7882 6.79808 14.8989C6.95148 15.0096 7.00003 15.0756 7.00003 15.0756C7.00003 15.0756 7.02915 15.0368 7.05245 14.998C7.07575 14.9552 7.09517 14.9067 7.13401 14.8931C7.21168 14.8601 7.38838 14.9222 7.42721 14.9125C7.46022 14.9028 7.45051 14.8348 7.48546 14.8348C7.56702 14.831 7.61945 14.8873 7.64857 14.8873C7.6777 14.8873 7.74954 14.8834 7.75925 14.8679C7.76896 14.8523 7.77284 14.6912 7.88352 14.6135C8.00391 14.5281 8.15149 14.5649 8.19032 14.5844C8.19032 14.6135 8.19421 14.6853 8.27188 14.6892C8.34955 14.6931 8.35731 14.6795 8.42527 14.7028C8.49324 14.7261 8.57479 14.6989 8.61168 14.8135C8.64469 14.8038 8.72236 14.7941 8.70295 14.6834C8.74178 14.6543 8.77479 14.6348 8.85634 14.5203C8.87576 14.4912 8.90877 14.4581 8.93401 14.4154C9.00198 14.4154 9.08353 14.4018 9.19227 14.497C9.15926 14.5203 9.13984 14.5358 9.13013 14.5591C9.13984 14.5688 9.17868 14.6077 9.2078 14.6504C9.23693 14.6892 9.25635 14.7358 9.29324 14.7455C9.37479 14.7688 9.50877 14.7358 9.65829 14.7455C9.80198 14.7552 9.92237 14.8077 9.9748 14.8407C9.99421 14.831 9.99421 14.8271 10.0428 14.8368C10.0913 14.8465 10.1282 14.8504 10.0758 14.7882C10.1049 14.8018 10.1379 14.831 10.167 14.8018C10.1962 14.7727 10.2195 14.73 10.301 14.7203C10.3826 14.7106 10.4117 14.7242 10.4447 14.6387C10.4874 14.5339 10.3398 14.5339 10.3398 14.5339C10.3398 14.5339 10.4078 14.4717 10.4835 14.3902C10.5748 14.3048 10.6797 14.1941 10.7049 14.0582C10.7476 13.8077 10.503 13.7747 10.503 13.7747L9.31654 14.1397L7.86605 14.0679L6.62915 14.6834Z" fill="#927D49"/>
<path d="M5.56317 11.2563C5.56317 11.2563 5.52434 11.3048 5.50104 11.4194C5.47774 11.5339 5.48745 11.5203 5.46803 11.6019C5.44861 11.6834 5.20978 12.4951 5.2991 12.7689C5.38842 13.0427 5.54376 13.1436 5.64084 13.365C5.66026 13.4135 5.67968 13.4427 5.68939 13.4854C5.7224 13.6291 5.69327 13.7397 5.73211 13.8834C5.7457 13.932 5.78065 13.9883 5.83308 14.0465C5.94764 14.1669 6.13599 14.2815 6.21754 14.363C6.3321 14.4834 6.49521 14.7281 6.70298 14.7514C6.81366 14.765 6.97094 14.7184 7.10103 14.6407C7.2156 14.5689 7.28744 14.4679 7.40783 14.4096C7.49327 14.3669 7.58453 14.3514 7.66608 14.332C7.83501 14.299 7.98841 14.2931 8.07967 14.3126C8.21948 14.3417 8.54957 14.4427 8.7321 14.4427C8.80394 14.4427 8.97287 14.433 9.1554 14.3844C9.43307 14.3029 9.76899 14.163 9.99035 14.1009C10.1204 14.0621 10.2253 14.0524 10.3321 14.0291C10.5146 13.9863 10.668 13.9281 10.7554 13.8174C10.6971 13.7495 10.6253 13.6446 10.2369 13.6485C9.79617 13.6582 9.28744 13.9029 9.03695 13.9417C8.78647 13.9805 8.67773 14.0135 8.39812 13.9126C8.12433 13.8116 8.11462 13.7436 8.11462 13.7436C8.11462 13.7436 7.82725 13.5417 7.70686 13.0291C7.58647 12.5145 7.70686 12.1417 8.01948 11.7864C8.10103 11.6951 8.08161 11.6135 8.08161 11.6135C8.08161 11.6135 8.28744 11.3359 8.23113 11.0757C8.16899 10.8174 7.77094 10.8699 7.77094 10.8699L5.56317 11.2563Z" fill="#6E6342"/>
<path d="M5.89517 12.1204C5.89517 12.1204 5.86604 12.1728 5.87186 12.2252C5.87575 12.2776 5.89128 12.3456 6.04856 12.499C6.18254 12.633 6.15342 12.7825 6.15342 12.7825C6.15342 12.7825 6.22138 12.7961 6.4039 12.7107C6.54759 12.6427 6.59614 12.7631 6.59614 12.7631C6.59614 12.7631 6.65439 12.7301 6.73012 12.7204C6.80779 12.7107 6.85051 12.6815 6.85051 12.6815C6.85051 12.6815 7.01944 12.8544 7.16701 12.9359C7.30099 13.0078 7.37866 13.0563 7.44468 13.0078C7.50682 12.965 7.50682 12.8777 7.50293 12.8388C7.50293 12.8388 7.48352 12.7903 7.44468 12.7378C7.40196 12.6757 7.334 12.6039 7.33012 12.5456C7.32041 12.4116 7.43109 12.2524 7.40779 12.2136C7.38449 12.1747 7.29711 12.165 7.08158 12.2427C6.85827 12.3165 5.89517 12.1204 5.89517 12.1204Z" fill="#39331F"/>
<path d="M6.40384 12.9884C6.40384 12.9884 6.29316 12.8836 6.33199 12.3748C6.39025 12.3709 6.4718 12.3884 6.4718 12.3884C6.4718 12.3884 6.532 12.7826 6.40384 12.9884Z" fill="#292311"/>
<path d="M5.61554 10.8679C5.61554 10.8679 5.63495 10.8543 5.65825 10.8291C5.61942 10.9009 5.44272 11.1883 5.58641 11.6407C5.7301 12.0912 6.09126 12.4272 6.53592 12.4427C6.98058 12.4582 7.21359 12.2408 7.48155 11.9145C7.58641 11.7844 7.7068 11.6213 7.81359 11.5107C7.97282 11.3378 8.09709 11.2893 8.09709 11.1223C8.09709 10.7805 7.74757 10.6271 7.23301 10.4737C6.71845 10.3203 6.25437 10.3398 6.01359 10.4446C5.77864 10.5592 5.67767 10.6796 5.61554 10.8679Z" fill="#252211"/>
<path d="M7.26794 13.1417L7.30678 13.1222C7.30678 13.1222 7.31649 12.9688 7.37862 12.9727C7.44075 12.9824 7.46988 13.064 7.46405 13.0931C7.46017 13.1222 7.44464 13.1708 7.3825 13.165C7.30095 13.1669 7.26794 13.1417 7.26794 13.1417Z" fill="#3F3824"/>
<path d="M7.09515 12.4894C7.09515 12.4894 7.13399 12.4758 7.18059 12.5224C7.21942 12.5224 7.38641 12.503 7.43884 12.536C7.49127 12.569 7.5068 12.5981 7.5068 12.5981C7.5068 12.5981 7.31069 12.6408 7.20389 12.5981C7.09515 12.5612 7.09515 12.4894 7.09515 12.4894Z" fill="#2D2815"/>
<path d="M7.95924 12.5185C7.95924 12.5088 7.85439 12.437 7.7437 12.4137C7.72429 12.4098 7.7204 12.4234 7.70487 12.4234C7.69516 12.4195 7.69128 12.3904 7.69128 12.3904L7.62914 12.4234C7.62914 12.4234 7.61943 12.437 7.65244 12.4622C7.68157 12.4855 7.73011 12.5049 7.7437 12.5438C7.7573 12.5826 7.7573 12.5962 7.76312 12.602C7.76701 12.6059 7.83497 12.602 7.86798 12.5826C7.90099 12.5613 7.96312 12.5321 7.95924 12.5185Z" fill="#82764F"/>
<path d="M6.97864 12.9125C6.97864 12.9125 6.99806 12.7786 7.12816 12.7727C7.26214 12.763 7.28738 12.8931 7.28738 12.8931L7.20971 12.9708C7.20971 12.9688 7.15146 12.8873 6.97864 12.9125Z" fill="#2D2816"/>
<path d="M7.82335 12.3358C7.82335 12.3358 7.7515 12.4135 7.59227 12.4368C7.57867 12.4174 7.54955 12.3786 7.59227 12.3164C7.63499 12.2543 7.68353 12.2349 7.73208 12.2543C7.78063 12.264 7.81364 12.297 7.82335 12.3358Z" fill="#574F35"/>
<path d="M8.11645 12.431C8.12033 12.4116 8.10674 12.4077 8.11645 12.398C8.12616 12.3883 8.17858 12.3688 8.18829 12.3786C8.19218 12.3824 8.18829 12.398 8.18829 12.4174C8.18829 12.4368 8.18829 12.4562 8.17858 12.4698C8.16499 12.4892 8.12616 12.4989 8.10674 12.4931C8.08732 12.4892 8.08344 12.4601 8.08344 12.4543C8.09314 12.4504 8.11645 12.4407 8.11645 12.431ZM8.4485 12.2213C8.4485 12.2116 8.48151 12.1921 8.50093 12.1921C8.53005 12.1921 8.53005 12.2154 8.53394 12.2213C8.54365 12.2251 8.54365 12.2174 8.55336 12.2349C8.56306 12.2543 8.57666 12.2834 8.56695 12.3028C8.55724 12.3222 8.5184 12.3358 8.50869 12.3319C8.4951 12.3222 8.45238 12.2349 8.4485 12.2213Z" fill="#82764F"/>
<path d="M7.78058 12.4758C7.78058 12.4758 7.8233 12.4855 7.88155 12.5341C7.86213 12.5477 7.83301 12.5632 7.83301 12.5632C7.83301 12.5632 7.82912 12.5186 7.78058 12.4758Z" fill="#6E6342"/>
<path d="M7.68543 12.0487C7.67572 12.039 7.71455 12.0157 7.73785 12.0195C7.76115 12.0234 7.77086 12.039 7.7961 12.0428C7.82135 12.0467 7.82523 12.0331 7.83494 12.0234C7.84465 12.0137 7.87766 12.0195 7.88348 12.0234C7.88736 12.0273 7.89319 12.037 7.89319 12.037C7.89319 12.037 7.89319 12.0137 7.91261 11.9982C7.93202 11.9846 7.95144 11.9846 7.96503 11.9885C7.96892 12.0021 7.98833 12.0506 7.98445 12.0603C7.98057 12.07 7.92231 12.0836 7.91261 12.0739C7.92231 12.0972 7.96503 12.1458 7.97086 12.1555C7.97474 12.1652 7.92814 12.1885 7.90872 12.1846C7.88154 12.1826 7.71455 12.0856 7.68543 12.0487ZM7.93979 11.7263C7.93979 11.7263 7.93591 11.7127 7.92037 11.703C7.90678 11.6992 7.86212 11.703 7.86212 11.7263C7.86212 11.7496 7.90096 11.8797 7.94367 11.9477C7.99222 12.0157 8.02523 12.072 8.05823 12.0875C8.09124 12.1011 8.11066 12.0778 8.11649 12.0681C8.12037 12.0584 8.13008 11.9865 8.12619 11.8176C8.12231 11.6487 8.11649 11.4856 8.10678 11.4759C8.09707 11.4662 8.05823 11.4662 8.04464 11.4856C8.03105 11.505 7.94367 11.6972 7.93979 11.7263Z" fill="#585136"/>
<path d="M7.76699 12.7203C7.76699 12.7203 7.69903 12.6776 7.63301 12.7067C7.57087 12.7358 7.57475 12.8504 7.57475 12.8504C7.57475 12.8504 7.61747 12.8698 7.66019 12.8407C7.70291 12.8116 7.75728 12.763 7.76699 12.7203Z" fill="#574F35"/>
<path d="M7.8951 12.8737C7.89121 12.8348 7.85626 12.8348 7.85626 12.8154C7.86015 12.796 7.87956 12.7824 7.89898 12.7824C7.9184 12.7824 7.93782 12.8057 7.96112 12.8212C7.98442 12.8348 8.01937 12.8601 8.02325 12.8892C8.02714 12.9183 7.98442 12.9999 7.93782 12.9999C7.89121 12.9979 7.90481 12.9125 7.8951 12.8737ZM8.26985 12.8212C8.26985 12.8212 8.19218 12.8446 8.19801 12.8212C8.20189 12.7979 8.22131 12.7921 8.24655 12.7921C8.25626 12.7824 8.27568 12.7688 8.2951 12.7688C8.31452 12.7688 8.32422 12.7785 8.32422 12.7785C8.32422 12.7785 8.37665 12.7552 8.39219 12.7688C8.40578 12.7824 8.39607 12.7824 8.40578 12.7979C8.41549 12.8115 8.42908 12.8407 8.42908 12.8562C8.42908 12.8717 8.37083 12.9047 8.32422 12.8989C8.26985 12.8873 8.27956 12.831 8.26985 12.8212ZM8.72228 12.7339C8.72228 12.7339 8.74558 12.7475 8.72617 12.763C8.71257 12.7766 8.64461 12.8018 8.58636 12.8057C8.52811 12.8057 8.47568 12.8154 8.47568 12.796C8.47568 12.7766 8.52422 12.7378 8.55335 12.728C8.56306 12.7145 8.58248 12.7047 8.60189 12.7047C8.62519 12.7047 8.71646 12.695 8.7417 12.6912C8.765 12.6873 8.78442 12.7009 8.77083 12.7203C8.765 12.7339 8.72228 12.7339 8.72228 12.7339ZM8.85626 12.1339C8.85626 12.1339 8.82714 12.196 8.79413 12.196C8.76112 12.1921 8.76112 12.1824 8.76112 12.1727C8.76112 12.1591 8.79413 12.1242 8.79024 12.1145C8.78054 12.1145 8.75723 12.1145 8.76112 12.0912C8.76112 12.0717 8.79413 12.0484 8.82325 12.0523C8.83296 12.0426 8.86597 12.0232 8.90092 12.0232C8.93393 12.0232 8.96306 12.0329 8.96306 12.0523C8.96306 12.0717 8.92422 12.1145 8.91063 12.1242C8.8951 12.1397 8.87568 12.1494 8.85626 12.1339ZM8.41354 13.2814C8.41354 13.2814 8.37471 13.2853 8.37471 13.3047C8.37471 13.3145 8.38442 13.3145 8.39801 13.3086C8.40772 13.3086 8.42131 13.3047 8.42131 13.3047C8.42519 13.3086 8.42519 13.328 8.45432 13.328C8.46791 13.328 8.49704 13.3183 8.52228 13.3047C8.54558 13.295 8.565 13.2853 8.565 13.2659C8.55529 13.2329 8.53587 13.2174 8.50675 13.2174C8.47762 13.2174 8.46403 13.2271 8.46403 13.2271C8.46403 13.2271 8.45432 13.2077 8.42131 13.2271C8.3883 13.2465 8.39219 13.2465 8.40189 13.2562C8.41937 13.2717 8.41354 13.2814 8.41354 13.2814ZM8.19413 13.4834C8.19413 13.4737 8.24267 13.4543 8.25626 13.4601C8.26985 13.464 8.30869 13.5378 8.30869 13.5455C8.30869 13.5552 8.26015 13.5785 8.24073 13.5785C8.22131 13.5785 8.1883 13.5455 8.1883 13.5397C8.1883 13.5358 8.2116 13.53 8.2116 13.5261C8.21743 13.5164 8.19413 13.4931 8.19413 13.4834ZM8.04073 13.1999C8.05044 13.196 8.05044 13.1863 8.06403 13.1766C8.07762 13.1669 8.09316 13.1727 8.09316 13.1727C8.09316 13.1727 8.10286 13.1533 8.12617 13.1494C8.14947 13.1455 8.16888 13.1494 8.165 13.1591C8.165 13.1882 8.18442 13.2077 8.18442 13.231C8.18442 13.2543 8.17083 13.2834 8.12228 13.3028C8.07374 13.3164 8.00772 13.3164 7.99801 13.3125C7.9883 13.3086 7.97859 13.2698 7.9883 13.2504C7.99607 13.229 8.02519 13.2096 8.04073 13.1999Z" fill="#82764F"/>
<path d="M8.10293 13.2136C8.10293 13.2136 8.06992 13.233 8.06992 13.2427C8.06604 13.2525 8.06604 13.266 8.06604 13.2719C8.06604 13.2777 8.10876 13.268 8.11458 13.2622C8.11652 13.2583 8.10293 13.2233 8.10293 13.2136Z" fill="#6E6342"/>
<path d="M7.81358 13.1223C7.833 13.1262 7.86601 13.1223 7.89125 13.132C7.91067 13.1417 7.92426 13.1611 7.90484 13.1844C7.88543 13.2077 7.86601 13.2427 7.82329 13.2368C7.77475 13.233 7.72815 13.2077 7.72815 13.1883C7.72427 13.165 7.73786 13.1359 7.75145 13.1203C7.77087 13.1048 7.78058 13.1145 7.81358 13.1223Z" fill="#585136"/>
<path d="M7.79028 13.1418C7.79028 13.1418 7.72815 13.1904 7.71261 13.2137C7.6932 13.237 7.59805 13.3574 7.56892 13.3826C7.57863 13.3632 7.60193 13.3341 7.60193 13.3341C7.60193 13.3341 7.54368 13.3671 7.52038 13.4389C7.49708 13.5108 7.65048 13.5496 7.75145 13.5788C7.85242 13.6079 7.89125 13.6176 7.89125 13.6176C7.89125 13.6176 7.833 13.5322 7.79611 13.4409C7.75727 13.3496 7.73786 13.3399 7.7631 13.2972C7.78252 13.2545 7.81164 13.2253 7.81164 13.1923C7.79999 13.1613 7.79028 13.1418 7.79028 13.1418Z" fill="#574F35"/>
<path d="M5.57672 13.2952C5.57672 13.2952 5.59031 13.2991 5.61944 13.2952C5.64857 13.2913 5.95148 13.1806 6.26798 13.2C6.40779 13.2097 6.65633 13.2292 6.96895 13.3146C7.36701 13.4195 7.86215 13.6272 8.18254 13.7457C8.26797 13.7787 8.35147 13.8369 8.41361 13.8602C8.65826 13.9554 8.66797 13.9554 8.81166 13.9806C8.98059 14.0039 9.15341 13.9476 9.33399 13.9088C9.55535 13.8602 9.93399 13.8369 10.266 13.7884C10.4388 13.7651 10.5825 13.7165 10.5825 13.7165C10.5825 13.7165 10.3185 13.9806 9.68545 14.0758C9.36894 14.1243 9.10875 14.1088 8.91263 14.0855C8.71069 14.0661 8.57671 14.0369 8.47574 14.0078C8.36118 13.9748 8.12623 13.8874 7.83691 13.8156C7.63497 13.7632 7.40972 13.7243 7.15147 13.6758C6.51458 13.5593 5.82332 13.4253 5.57672 13.2952Z" fill="#252211"/>
<path d="M5.24662 10.7184C5.17866 10.6563 5.10681 10.5942 5.04079 10.532C4.97283 10.4699 4.90681 10.4077 4.83885 10.3456L4.63691 10.1534C4.6039 10.1204 4.56895 10.0912 4.53594 10.0582C4.50293 10.0291 4.46409 9.9961 4.43108 9.96697C4.16312 9.7126 3.89322 9.45823 3.62914 9.20386C3.90293 9.45434 4.17089 9.70289 4.44468 9.95726L4.53982 10.0524C4.57283 10.0854 4.60778 10.1145 4.64079 10.1476L4.84274 10.334C4.9107 10.3961 4.97672 10.4582 5.04468 10.5262C5.11264 10.5942 5.17866 10.6563 5.24662 10.7184ZM1.68933 10.6796C1.68933 10.6796 2.66409 10.7806 3.13982 10.8485C3.5806 10.9107 4.95924 11.1223 4.95924 11.1223L1.68933 10.6796ZM1.68933 10.6796C1.96312 10.7029 2.23691 10.732 2.51069 10.7612C2.6505 10.7747 2.78448 10.7903 2.91846 10.8039L3.12429 10.8272C3.19225 10.8369 3.25827 10.8466 3.32623 10.8563L4.14176 10.9864L4.54953 11.0544C4.68351 11.0777 4.81749 11.1029 4.9573 11.1262C4.82332 11.1126 4.68351 11.0932 4.54953 11.0738L4.14176 11.0155L3.32623 10.8951C3.25827 10.8854 3.19225 10.8718 3.12429 10.8621L2.91846 10.8388C2.78448 10.8252 2.64467 10.8058 2.51069 10.7903C2.23691 10.7573 1.96312 10.7223 1.68933 10.6796ZM4.86215 11.3767C4.86215 11.3767 3.82137 11.6408 3.46992 11.7417C3.12429 11.8369 2.07768 12.1553 2.07768 12.1553" fill="#CFB66C"/>
<path d="M4.86209 11.3767C4.63102 11.4447 4.40189 11.5107 4.16694 11.5728L3.4718 11.7592C3.24073 11.8272 3.0116 11.8932 2.78053 11.9612L2.4349 12.0563C2.32034 12.0893 2.20383 12.1185 2.08539 12.1515C2.19995 12.1126 2.31646 12.0738 2.43102 12.0408L2.77665 11.9301C3.00772 11.8583 3.23684 11.7903 3.46791 11.7185C3.70286 11.6602 3.93393 11.5981 4.16888 11.5418C4.39218 11.4854 4.62714 11.4291 4.86209 11.3767ZM2.22325 12.7961C2.33782 12.7534 3.6582 12.1379 3.965 11.9942C4.1184 11.9223 4.565 11.7631 4.565 11.7631" fill="#CFB66C"/>
<path d="M2.22327 12.796C2.32424 12.7572 2.41938 12.7106 2.51647 12.6659L2.80385 12.5319L3.38055 12.2543C3.57278 12.163 3.75918 12.062 3.95724 11.9766C4.05821 11.9339 4.15918 11.8989 4.26015 11.8659L4.41355 11.8174C4.46598 11.8038 4.51452 11.7883 4.56695 11.7747C4.37472 11.8659 4.17278 11.9436 3.98054 12.0329C3.78831 12.1281 3.59219 12.2057 3.39414 12.2912L2.80773 12.5494C2.61162 12.629 2.41938 12.7145 2.22327 12.796ZM2.35142 13.3339C2.35142 13.3339 3.54753 12.6329 3.95918 12.4077C4.17472 12.2873 4.8718 11.9416 4.8718 11.9416" fill="#CFB66C"/>
<path d="M2.3515 13.3341C2.55344 13.2098 2.75927 13.0836 2.96509 12.9555L3.27189 12.7691C3.37674 12.7069 3.47771 12.6487 3.58451 12.5865C3.68936 12.5244 3.79033 12.4623 3.89713 12.404C3.94956 12.371 4.00198 12.3458 4.05635 12.3225L4.21946 12.2409C4.43499 12.136 4.65052 12.0293 4.87771 11.938C4.67188 12.0681 4.46023 12.1788 4.24858 12.2933C4.14373 12.3516 4.03693 12.404 3.93208 12.4623C3.82723 12.5205 3.72625 12.5827 3.61946 12.639C3.5146 12.7011 3.41363 12.7594 3.30684 12.8157L2.99033 12.9885C2.7748 13.105 2.56315 13.2196 2.3515 13.3341ZM4.86217 12.0953C4.86217 12.0953 4.11849 12.6662 3.87771 12.8487C3.63693 13.0312 2.9282 13.5438 2.9282 13.5438" fill="#CFB66C"/>
<path d="M4.86217 12.0952C4.70877 12.2253 4.54567 12.3496 4.38644 12.47L3.90683 12.8389C3.74372 12.9593 3.5845 13.0836 3.42139 13.204C3.25829 13.3243 3.09518 13.4389 2.92236 13.5496C3.07576 13.4195 3.23887 13.2991 3.40198 13.1807C3.56508 13.0622 3.73401 12.9457 3.8913 12.8253L4.37091 12.4564C4.53596 12.336 4.69518 12.2117 4.86217 12.0952ZM4.01363 13.4544C4.01363 13.4544 4.18644 13.3107 4.40198 13.1088C4.66994 12.8583 4.99809 12.5379 5.10295 12.4797" fill="#CFB66C"/>
<path d="M4.01361 13.4545C4.09905 13.369 4.19031 13.2855 4.28157 13.204L4.42138 13.0836C4.4641 13.0448 4.51264 13.002 4.55536 12.9593C4.64079 12.8739 4.72429 12.7826 4.80973 12.6952C4.85244 12.6525 4.89516 12.6098 4.94371 12.571C4.96701 12.5516 4.99225 12.5321 5.02138 12.5185C5.04468 12.505 5.06992 12.4797 5.10293 12.4758C5.08351 12.505 5.06021 12.5185 5.04079 12.5438C5.01749 12.5632 4.99808 12.5865 4.97866 12.6059C4.93594 12.6486 4.8874 12.6875 4.84468 12.7263C4.75342 12.804 4.65827 12.8797 4.56701 12.9613C4.47575 13.0428 4.39031 13.1302 4.29905 13.2118C4.20002 13.2953 4.10876 13.3768 4.01361 13.4545ZM5.17477 12.6778C5.17477 12.6778 4.54177 13.2972 4.41167 13.3982L5.17477 12.6778Z" fill="#CFB66C"/>
<path d="M5.17472 12.6777C5.11647 12.7457 5.05433 12.8078 4.9922 12.8641L4.79997 13.0467C4.73783 13.1088 4.67958 13.1709 4.61356 13.2331C4.5456 13.2913 4.48346 13.3476 4.41162 13.402L4.59803 13.2195C4.66016 13.1573 4.72812 13.1049 4.79414 13.0428L4.98055 12.8603C5.04462 12.7962 5.10676 12.734 5.17472 12.6777ZM5.20385 13.0137C5.20385 13.0137 5.132 13.2253 4.99802 13.4894C4.83492 13.8156 4.59026 14.2234 4.48346 14.4311" fill="#CFB66C"/>
<path d="M5.20392 13.0137C5.20392 13.0855 5.1845 13.1477 5.1612 13.2098C5.1379 13.2719 5.11266 13.3341 5.08353 13.3923C5.0544 13.4506 5.02139 13.5127 4.98839 13.569C4.95538 13.6273 4.91654 13.6836 4.88741 13.7418L4.6913 14.0875C4.62334 14.202 4.55732 14.3185 4.48547 14.4292C4.53402 14.3049 4.60004 14.1884 4.66217 14.0739C4.73013 13.9593 4.79227 13.8428 4.85441 13.7243C4.88353 13.6661 4.91266 13.604 4.93596 13.5418C4.96508 13.4797 4.99421 13.4214 5.01751 13.3651C5.04664 13.303 5.06994 13.2447 5.09906 13.1884C5.13207 13.1282 5.15926 13.07 5.20392 13.0137Z" fill="#CFB66C"/>
<path d="M5.89508 14.6057C5.89508 14.6057 5.70285 14.8601 5.72226 15.1824C5.77469 15.0135 5.84071 14.7552 5.89508 14.6057ZM6.0776 14.8601C6.0776 14.8601 6.00964 15.5513 5.95333 15.8911C6.03294 15.4989 6.04848 15.5319 6.0776 14.8601ZM7.34944 15.9319C7.34944 15.9319 7.06207 16.7766 7.05624 17.0115C7.11838 16.7707 7.23877 16.2775 7.34944 15.9319Z" fill="#DEC270"/>
<path d="M8.02133 14.5535C8.02133 14.5535 8.48735 15.3224 8.83686 15.9787C8.74172 15.6486 8.52424 15.0428 8.02133 14.5535Z" fill="#CBAF59"/>
<path d="M9.2738 15.6855C9.2738 15.6855 9.63885 16.3147 9.96507 17.0816C9.92623 16.7515 9.82138 16.1865 9.2738 15.6855Z" fill="#E3C677"/>
<path d="M12.9554 16.8194C13.033 16.7709 13.1864 16.5068 13.3204 16.4408C13.4544 16.3728 13.5554 16.3592 13.6758 16.2252C13.7962 16.0854 13.8292 16 14.0932 15.8893C14.4622 15.7301 14.2078 15.5243 14.2078 15.5243C14.2078 15.5243 14.2699 15.4621 14.3379 15.4136C14.4331 15.3417 14.5437 15.2544 14.534 15.101C14.5204 14.8427 14.4719 14.468 14.2602 14.2505C14.4661 14.2078 14.8602 14.1786 15.1049 14.1165C15.3884 14.0447 15.5185 13.9437 15.5185 13.9437C15.5185 13.9437 15.3554 13.666 15.6195 13.3864C15.8835 13.1087 16.0991 12.9398 16.2583 12.6272C16.0758 12.6039 15.7981 12.5068 15.0874 12.7767C15.1399 12.8 15.1981 12.8388 15.1981 12.8388C15.1981 12.8388 14.7612 12.9592 14.602 13.0932C14.3243 13.3282 14.2894 13.5204 13.9884 13.6641C13.6855 13.8078 13.3845 13.7689 13.134 13.8854C12.8835 14 12.8466 14.101 12.7554 14.1437C12.7748 14.167 12.7515 14.2058 12.7884 14.2388C12.7651 14.2718 12.6292 14.4932 12.4913 14.4932C12.5049 14.5456 12.6214 14.5845 12.6214 14.5845C12.6214 14.5845 12.536 14.6466 12.3185 14.6621C12.4292 14.7767 12.534 14.9029 12.8233 15.0854C12.8 15.134 12.7029 15.2058 12.7418 15.2971C12.7845 15.3883 12.8952 15.5126 13.3379 15.6136C13.1127 15.6233 12.8486 15.6757 12.4932 15.6272C12.1379 15.5845 12.0796 15.5592 11.8602 15.6136C11.8835 15.6369 11.9457 15.6369 12 15.699C11.9418 15.7029 11.5767 15.6563 11.4525 15.8194C11.3224 15.9883 11.266 16.266 11.2758 16.4524C11.2078 16.4854 11.1418 16.5437 11.1748 16.6641C11.2078 16.7845 11.3806 16.8233 11.4913 16.899C11.602 16.9806 11.6117 17.0097 11.7165 16.9903C11.8272 16.967 11.9903 16.8563 12.0855 16.8563C12.1806 16.8563 12.2486 16.9281 12.2486 16.9281C12.2486 16.9281 12.5068 16.8039 12.5321 16.8272C12.5554 16.8505 12.536 17 12.5612 17.0233C12.5864 17.0408 12.8777 16.8679 12.9554 16.8194Z" fill="#ECD592"/>
<path opacity="0.8" d="M18.6 9.04855C17.3864 5.91457 14.3864 5.33398 14.3864 5.33398H5.82715L5.86016 8.52622H7.56502V15.6544H5.82715V18.8408H14.1495C16.1553 18.8408 17.7631 16.8252 17.7631 16.8252C20.3379 13.1709 18.6 9.04855 18.6 9.04855ZM14.1942 14.6777C14.1942 14.6777 13.5417 15.6194 12.831 15.6194H11.4097L11.3767 8.53398H13.2C13.2 8.53398 14.0446 8.71068 14.6349 10.3825C14.6349 10.3825 15.4175 12.7767 14.1942 14.6777Z" fill="#FCFAF6"/>
</g>
</g>
</g>
<defs>
<clipPath id="clip0_2340_132573">
<rect width="24" height="24" fill="white"/>
</clipPath>
<clipPath id="clip1_2340_132573">
<rect width="24" height="24" fill="white"/>
</clipPath>
</defs>
</svg>
