<svg width="24" height="24" viewBox="0 0 24 24" fill="none" xmlns="http://www.w3.org/2000/svg">
<path d="M12.7544 11.4666C12.7169 11.5037 12.6825 11.5438 12.652 11.5867L12.6424 11.5836C12.5867 11.5656 12.5291 11.5545 12.4709 11.5507C12.4534 11.5494 12.3881 11.5494 12.3668 11.5507C12.3024 11.5549 12.253 11.5645 12.1969 11.5838C12.1947 11.5847 12.1927 11.5853 12.1907 11.586C12.159 11.5434 12.1238 11.5035 12.085 11.4668C12.2712 11.3726 12.4891 11.3612 12.6841 11.4356C12.705 11.4433 12.7254 11.4524 12.7454 11.4622L12.7544 11.4666Z" fill="#F00500"/>
<path d="M13.1017 12.3083C13.0735 12.388 13.031 12.4619 12.9761 12.5262C12.9462 12.5608 12.9132 12.5926 12.8778 12.6214C12.7947 12.6875 12.6978 12.7348 12.5943 12.7596C12.4799 12.7869 12.3605 12.7869 12.2461 12.7596C12.1424 12.7348 12.0457 12.6875 11.9627 12.6214C11.9272 12.5926 11.8942 12.5608 11.8644 12.5262C11.7062 12.3414 11.6581 12.0876 11.7387 11.8588C11.754 11.8164 11.773 11.7756 11.7959 11.7368C11.8065 11.719 11.8195 11.6991 11.8258 11.6908C11.8473 11.7825 11.8738 11.863 11.8837 11.8921C11.883 11.8936 11.8821 11.8954 11.8812 11.897C11.8289 12.0017 11.8006 12.1027 11.7939 12.21C11.7939 12.2114 11.7937 12.2129 11.7937 12.2143C11.7919 12.2464 11.7928 12.2617 11.7982 12.2819C11.815 12.3452 11.8668 12.4148 11.9481 12.4832C12.0811 12.595 12.2616 12.6758 12.3982 12.6851C12.5407 12.6946 12.751 12.6123 12.891 12.4921C12.913 12.4728 12.9336 12.4523 12.9529 12.4306C12.9669 12.4146 12.9875 12.3871 12.9859 12.3871C12.9855 12.3871 12.9859 12.3867 12.9868 12.3862C12.9875 12.3858 12.9882 12.3851 12.9877 12.3847C12.9875 12.3844 12.988 12.3838 12.9886 12.3836C12.9893 12.3833 12.9897 12.3829 12.9895 12.3824C12.9893 12.382 12.9895 12.3816 12.9904 12.3813C12.9911 12.3811 12.9913 12.3805 12.9911 12.38C12.9909 12.3796 12.9911 12.3791 12.9915 12.3791C12.992 12.3791 12.9924 12.3785 12.9924 12.378C12.9924 12.3776 12.9929 12.3769 12.9933 12.3769C12.9938 12.3769 12.9942 12.3765 12.9942 12.376C12.9949 12.3742 12.996 12.3725 12.9972 12.3709C13.0005 12.3658 13.014 12.3421 13.0158 12.3381C13.0286 12.3094 13.0366 12.2839 13.0405 12.2584C13.0423 12.2462 13.0434 12.2238 13.0425 12.2185C13.0423 12.2176 13.0423 12.216 13.042 12.2136C13.0416 12.2092 13.0414 12.2025 13.0409 12.1958C13.0405 12.1859 13.0396 12.1719 13.0389 12.165C13.0292 12.0643 13.0032 11.982 12.9538 11.8948C12.9518 11.8914 12.95 11.8881 12.9489 11.8854C12.9485 11.8848 12.9482 11.8841 12.948 11.8837C12.955 11.863 12.9835 11.7767 13.0061 11.678L13.0066 11.6784L13.0099 11.6829C13.0158 11.6906 13.0313 11.7137 13.0382 11.7248C13.0699 11.7758 13.0945 11.8306 13.112 11.8879C13.1527 12.0257 13.1493 12.1725 13.1017 12.3083Z" fill="#F00500"/>
<path d="M12.8105 12.0431C12.8098 12.0466 12.7993 12.0573 12.7887 12.0651C12.7577 12.0875 12.7023 12.1083 12.646 12.1183C12.6139 12.1241 12.5818 12.125 12.5722 12.1203C12.5659 12.1172 12.565 12.1148 12.5672 12.1068C12.5719 12.0901 12.5872 12.0719 12.611 12.0549C12.6231 12.0462 12.6722 12.0167 12.6951 12.0043C12.7328 11.9839 12.7633 11.9717 12.784 11.9688C12.7905 11.9679 12.7984 11.9677 12.8008 11.9688C12.8049 11.9703 12.8094 11.9821 12.8111 11.9963C12.812 12.0038 12.8116 12.0371 12.8105 12.0431Z" fill="black"/>
<path d="M12.2817 12.1167C12.2804 12.1193 12.2737 12.1222 12.266 12.1233C12.2584 12.1244 12.2351 12.1238 12.2218 12.1222C12.1743 12.116 12.1238 12.1016 12.087 12.0838C12.0663 12.0739 12.0515 12.0639 12.0405 12.053L12.0342 12.0466L12.0336 12.0381C12.0324 12.0235 12.0327 12.0004 12.0345 11.9922C12.0356 11.9853 12.038 11.9787 12.0414 11.9727C12.0432 11.9705 12.0432 11.9705 12.0513 11.9705C12.0612 11.9705 12.0695 11.972 12.0829 11.9762C12.1105 11.9847 12.1516 12.0051 12.2016 12.0348C12.2429 12.0592 12.2584 12.0712 12.2703 12.0876C12.2784 12.0978 12.2838 12.1122 12.2817 12.1167Z" fill="black"/>
<path d="M12.5995 12.4254C12.5995 12.4261 12.5968 12.4367 12.5935 12.4493C12.5901 12.462 12.5874 12.4722 12.5874 12.4726C12.5849 12.4729 12.5827 12.4731 12.5802 12.4729H12.573L12.5632 12.4959C12.5578 12.5086 12.5528 12.5204 12.5522 12.5221L12.5508 12.5252L12.5461 12.5177L12.5414 12.5101V12.4487L12.5396 12.4491C12.5358 12.45 12.5086 12.4536 12.4967 12.4547C12.4476 12.4596 12.3982 12.4584 12.3493 12.4516C12.3414 12.4505 12.3347 12.4496 12.3345 12.4498C12.3343 12.45 12.3345 12.4642 12.3349 12.4817L12.3356 12.5133L12.3318 12.519C12.3298 12.5221 12.3278 12.5248 12.3278 12.525C12.3271 12.5257 12.3248 12.5221 12.3197 12.5119C12.3141 12.5013 12.31 12.49 12.3071 12.4782L12.3055 12.4718L12.2986 12.4722L12.2916 12.4729L12.2898 12.4647C12.2889 12.4602 12.2878 12.4533 12.2874 12.4496L12.2867 12.4425L12.2809 12.4374C12.2775 12.4345 12.2741 12.4316 12.2735 12.4312C12.2723 12.4303 12.2719 12.4287 12.2719 12.4274V12.4247L12.2999 12.4249L12.328 12.4252L12.3289 12.428L12.3298 12.4309L12.3394 12.4314C12.3448 12.4316 12.3619 12.432 12.3771 12.4325L12.4052 12.4332L12.4124 12.4221L12.4198 12.411H12.4292L12.429 12.3879L12.4287 12.3648L12.4164 12.3595C12.3767 12.3422 12.3533 12.3224 12.3446 12.2985C12.3428 12.2936 12.3428 12.2918 12.3423 12.2696C12.3421 12.2477 12.3421 12.2457 12.3437 12.2408C12.3468 12.2297 12.3556 12.221 12.3668 12.2182C12.3706 12.217 12.3807 12.217 12.4337 12.217L12.4961 12.2173L12.503 12.2206C12.5113 12.2246 12.5151 12.2275 12.5198 12.2337C12.5252 12.2408 12.5268 12.2463 12.5268 12.2599C12.5268 12.2792 12.5255 12.2958 12.5234 12.3025C12.5205 12.3116 12.516 12.3202 12.5104 12.328C12.4992 12.3422 12.4788 12.3564 12.4602 12.3628L12.4548 12.3648L12.455 12.3881L12.4552 12.4114L12.4602 12.4119L12.4651 12.4123L12.4718 12.4223L12.4783 12.4323H12.5084C12.525 12.4323 12.5396 12.4325 12.5409 12.4327C12.5432 12.4332 12.5436 12.4329 12.5459 12.4292L12.5486 12.4252H12.5744C12.5937 12.4243 12.5995 12.4247 12.5995 12.4254Z" fill="black"/>
<path d="M12.481 12.4891C12.4768 12.4915 12.4739 12.4926 12.4732 12.4922C12.4725 12.492 12.4694 12.4893 12.466 12.4869L12.4599 12.482L12.4537 12.4886C12.44 12.5033 12.4395 12.5039 12.4355 12.5042C12.4292 12.5048 12.4278 12.5037 12.4202 12.4924C12.4162 12.4866 12.413 12.4818 12.413 12.4818C12.413 12.4818 12.4101 12.4813 12.4068 12.4811L12.4005 12.4804L12.3976 12.4864L12.3946 12.4924L12.3895 12.4909C12.3854 12.4895 12.3814 12.488 12.3776 12.4862L12.3708 12.4829V12.4702L12.4305 12.4704L12.4902 12.4707L12.4905 12.4766C12.4907 12.4837 12.4909 12.4835 12.481 12.4891Z" fill="black"/>
<g clip-path="url(#clip0_2340_132747)">
<path d="M12 24C18.6274 24 24 18.6274 24 12C24 5.37258 18.6274 0 12 0C5.37258 0 0 5.37258 0 12C0 18.6274 5.37258 24 12 24Z" fill="url(#paint0_linear_2340_132747)"/>
<path fill-rule="evenodd" clip-rule="evenodd" d="M8.50204 7.80005V16.8H16.002L8.50204 7.80005Z" fill="url(#paint1_linear_2340_132747)"/>
<path fill-rule="evenodd" clip-rule="evenodd" d="M1.00208 16.8H8.50208V7.80005L1.00208 16.8Z" fill="white"/>
<path fill-rule="evenodd" clip-rule="evenodd" d="M2.40002 19.2C3.08402 20.106 3.89402 20.9159 4.80002 21.5999H19.2C20.106 20.9159 20.916 20.106 21.6 19.2H2.40002Z" fill="#FC9965"/>
<path fill-rule="evenodd" clip-rule="evenodd" d="M4.79999 21.6001C6.80399 23.1061 9.29999 24.0001 12 24.0001C14.7 24.0001 17.196 23.1061 19.2 21.6001H4.79999Z" fill="#FF2D55"/>
<path fill-rule="evenodd" clip-rule="evenodd" d="M16.0981 12.6001V19.2001H21.6001L16.0981 12.6001Z" fill="url(#paint2_linear_2340_132747)"/>
<path fill-rule="evenodd" clip-rule="evenodd" d="M16.0981 16.8H1.00208C1.37407 17.658 1.84807 18.462 2.40007 19.2001H16.1041V16.8H16.0981Z" fill="#FFBC5B"/>
<path fill-rule="evenodd" clip-rule="evenodd" d="M10.6021 19.2001H16.0981V12.6001L10.6021 19.2001Z" fill="white"/>
<path d="M16.098 10.8C17.7548 10.8 19.098 9.4569 19.098 7.80005C19.098 6.14319 17.7548 4.80005 16.098 4.80005C14.4411 4.80005 13.098 6.14319 13.098 7.80005C13.098 9.4569 14.4411 10.8 16.098 10.8Z" fill="#FFC95B"/>
<path d="M8.50204 6C9.33047 6 10.002 5.32843 10.002 4.5C10.002 3.67157 9.33047 3 8.50204 3C7.67362 3 7.00204 3.67157 7.00204 4.5C7.00204 5.32843 7.67362 6 8.50204 6Z" fill="#FFC95B"/>
</g>
<defs>
<linearGradient id="paint0_linear_2340_132747" x1="20.4852" y1="3.5148" x2="3.5148" y2="20.4852" gradientUnits="userSpaceOnUse">
<stop stop-color="#FF2D55"/>
<stop offset="1" stop-color="#FFBC5B"/>
</linearGradient>
<linearGradient id="paint1_linear_2340_132747" x1="12.2495" y1="7.80005" x2="12.2495" y2="16.8" gradientUnits="userSpaceOnUse">
<stop stop-color="#A524B3"/>
<stop offset="1" stop-color="#FF2D55"/>
</linearGradient>
<linearGradient id="paint2_linear_2340_132747" x1="18.8472" y1="12.6001" x2="18.8472" y2="19.2001" gradientUnits="userSpaceOnUse">
<stop stop-color="#A524B3"/>
<stop offset="1" stop-color="#FF2D55"/>
</linearGradient>
<clipPath id="clip0_2340_132747">
<rect width="24" height="24" fill="white"/>
</clipPath>
</defs>
</svg>
