<svg width="24" height="24" viewBox="0 0 24 24" fill="none" xmlns="http://www.w3.org/2000/svg">
<g clip-path="url(#clip0_2340_132715)">
<path d="M17.5728 2.11144C16.9482 2.729 16.376 3.39834 15.8673 4.11205L15.7065 4.06028C14.779 3.76074 13.8178 3.57584 12.8491 3.51298C12.5574 3.49079 11.469 3.49079 11.1137 3.51298C10.0403 3.58324 9.21751 3.74225 8.28249 4.06398C8.24509 4.07877 8.21143 4.08986 8.17777 4.10096C7.65042 3.39094 7.06323 2.7253 6.4162 2.11513C9.52045 0.543486 13.1521 0.354888 16.4022 1.59372C16.75 1.72315 17.0903 1.87476 17.4232 2.03748L17.5728 2.11144Z" fill="#F00500"/>
<path d="M23.3624 16.1379C22.8911 17.4654 22.1842 18.6969 21.2679 19.7693C20.7705 20.3462 20.2207 20.875 19.6298 21.3557C18.2459 22.4577 16.6302 23.2454 14.9061 23.6596C12.9986 24.1145 11.0089 24.1145 9.10149 23.6596C7.37358 23.2454 5.76161 22.4577 4.37779 21.3557C3.78685 20.875 3.23706 20.3462 2.73963 19.7693C0.102888 16.6889 -0.697486 12.4583 0.645197 8.64571C0.899522 7.93939 1.21743 7.25896 1.59891 6.61181C1.7747 6.31597 1.99162 5.98315 2.09634 5.84632C2.45539 7.3736 2.89672 8.71597 3.06128 9.20041C3.05006 9.22629 3.0351 9.25588 3.02014 9.28176C2.1487 11.0272 1.67746 12.7098 1.56525 14.4996C1.56525 14.5218 1.56151 14.5477 1.56151 14.5699C1.53159 15.1061 1.54655 15.3613 1.63631 15.6978C1.91682 16.7517 2.78078 17.9129 4.13468 19.0519C6.35254 20.9157 9.35955 22.2618 11.6373 22.4171C14.0122 22.5761 17.5166 21.2041 19.8504 19.1998C20.217 18.8781 20.561 18.5379 20.8827 18.1755C21.1146 17.9092 21.4587 17.4507 21.4325 17.4507C21.425 17.4507 21.4325 17.4433 21.4474 17.4359C21.4587 17.4285 21.4699 17.4174 21.4624 17.41C21.4587 17.4063 21.4661 17.3952 21.4774 17.3915C21.4886 17.3878 21.4961 17.3804 21.4923 17.373C21.4886 17.3656 21.4923 17.3582 21.5073 17.3545C21.5185 17.3508 21.5222 17.3397 21.5185 17.3323C21.5148 17.3249 21.5185 17.3175 21.526 17.3175C21.5335 17.3175 21.5409 17.3064 21.5409 17.299C21.5409 17.2916 21.5484 17.2805 21.5559 17.2805C21.5634 17.2805 21.5709 17.2731 21.5709 17.2658C21.5821 17.2362 21.6008 17.2066 21.6195 17.1807C21.6756 17.0956 21.9 16.7 21.9299 16.6334C22.1431 16.1564 22.2777 15.7311 22.3413 15.3058C22.3712 15.1024 22.3899 14.7289 22.375 14.6402C22.3712 14.6254 22.3712 14.5995 22.3675 14.5588C22.36 14.4849 22.3563 14.3739 22.3488 14.263C22.3413 14.0966 22.3264 13.8636 22.3151 13.749C22.1543 12.0701 21.7205 10.6981 20.8977 9.24478C20.864 9.18931 20.8341 9.13384 20.8154 9.08947C20.8079 9.07837 20.8042 9.06728 20.8004 9.05988C20.9164 8.71597 21.3913 7.27745 21.7691 5.63184L21.7766 5.63923L21.8327 5.71319C21.9299 5.84262 22.188 6.22721 22.3039 6.41211C22.8313 7.26266 23.2427 8.17606 23.5344 9.13015C24.2114 11.4266 24.1553 13.8747 23.3624 16.1379Z" fill="#F00500"/>
<path d="M18.5078 11.7189C18.4966 11.778 18.3208 11.9556 18.145 12.085C17.6289 12.4585 16.7051 12.8061 15.7663 12.9725C15.2315 13.0687 14.6967 13.0834 14.5358 13.0058C14.4311 12.954 14.4162 12.9133 14.4536 12.7802C14.5321 12.5029 14.7864 12.1996 15.1829 11.9149C15.3848 11.7707 16.2039 11.2788 16.5854 11.0717C17.2138 10.7315 17.7224 10.5281 18.0665 10.48C18.175 10.4653 18.3059 10.4616 18.347 10.48C18.4143 10.5059 18.4891 10.7019 18.519 10.9386C18.534 11.0643 18.5265 11.619 18.5078 11.7189Z" fill="black"/>
<path d="M9.69608 12.9428C9.67364 12.9872 9.56144 13.0353 9.43428 13.0538C9.30712 13.0723 8.91815 13.0612 8.69749 13.0353C7.9046 12.9317 7.06309 12.6914 6.44972 12.3955C6.10564 12.2291 5.85879 12.0627 5.67553 11.8815L5.57081 11.7743L5.55959 11.6337C5.54089 11.3897 5.54463 11.0051 5.57455 10.8683C5.59325 10.7536 5.63439 10.6427 5.69049 10.5428C5.72041 10.5059 5.72041 10.5059 5.85505 10.5059C6.01961 10.5059 6.15799 10.5317 6.3824 10.602C6.84242 10.7425 7.52685 11.0827 8.36089 11.5783C9.04906 11.9851 9.30712 12.1848 9.50534 12.4584C9.63998 12.6285 9.72974 12.8689 9.69608 12.9428Z" fill="black"/>
<path d="M14.992 18.0906C14.992 18.1017 14.9471 18.2792 14.891 18.49C14.8349 18.7008 14.7901 18.8709 14.7901 18.8783C14.7489 18.882 14.7115 18.8857 14.6704 18.882H14.5507L14.3861 19.2665C14.2964 19.4773 14.2141 19.6733 14.2029 19.7029L14.1804 19.7547L14.1019 19.629L14.0233 19.5032V18.4789L13.9934 18.4863C13.9298 18.5011 13.4773 18.5602 13.2791 18.5787C12.46 18.6601 11.6372 18.6416 10.8218 18.5269C10.6909 18.5085 10.5787 18.4937 10.575 18.4974C10.5713 18.5011 10.575 18.7377 10.5825 19.0299L10.5937 19.555L10.5301 19.6511C10.4965 19.7029 10.4628 19.7473 10.4628 19.751C10.4516 19.7621 10.4142 19.7029 10.3282 19.5328C10.2347 19.3553 10.1673 19.1667 10.1187 18.9707L10.0925 18.8635L9.97659 18.8709L9.86065 18.882L9.83073 18.7451C9.81577 18.6712 9.79707 18.5565 9.78959 18.4937L9.77837 18.3753L9.68113 18.2903C9.62503 18.2422 9.56893 18.1941 9.55771 18.1867C9.53901 18.1719 9.53152 18.1461 9.53152 18.1239V18.0795L9.99903 18.0832L10.4665 18.0869L10.4815 18.135L10.4965 18.183L10.6573 18.1904C10.747 18.1941 11.0313 18.2015 11.2856 18.2089L11.7531 18.22L11.8728 18.0351L11.9962 17.8502H12.1533L12.1496 17.4656L12.1458 17.081L11.9401 16.9923C11.2781 16.7038 10.8892 16.3747 10.7433 15.9753C10.7134 15.894 10.7134 15.8644 10.7059 15.4946C10.7022 15.1285 10.7022 15.0952 10.7283 15.0139C10.7807 14.829 10.9266 14.6847 11.1136 14.6367C11.1772 14.6182 11.3455 14.6182 12.2281 14.6182L13.2679 14.6219L13.3838 14.6773C13.5222 14.7439 13.5858 14.792 13.6643 14.8955C13.7541 15.0138 13.7802 15.1063 13.7802 15.3319C13.7802 15.6536 13.7578 15.931 13.7241 16.0419C13.6755 16.1935 13.6007 16.3377 13.5072 16.4672C13.3202 16.7038 12.9799 16.9405 12.6694 17.0477L12.5797 17.081L12.5834 17.4693L12.5872 17.8576L12.6694 17.865L12.7517 17.8724L12.8639 18.0388L12.9724 18.2052H13.4736C13.7503 18.2052 13.9934 18.2089 14.0159 18.2126C14.0533 18.22 14.0607 18.2163 14.0981 18.1535L14.143 18.0869H14.5731C14.8948 18.0721 14.992 18.0795 14.992 18.0906Z" fill="black"/>
<path d="M13.0173 19.1517C12.9462 19.1924 12.8976 19.2109 12.8864 19.2035C12.8752 19.1998 12.8228 19.1554 12.7667 19.1148L12.6657 19.0334L12.561 19.1443C12.3328 19.3884 12.3254 19.3995 12.258 19.4032C12.1533 19.4143 12.1309 19.3958 12.0037 19.2072C11.9364 19.1111 11.884 19.0297 11.884 19.0297C11.884 19.0297 11.8354 19.0223 11.7793 19.0186L11.6746 19.0075L11.626 19.1074L11.5774 19.2072L11.4913 19.1813C11.424 19.1591 11.3567 19.1333 11.2931 19.1037L11.1809 19.0482V18.8374L12.1758 18.8411L13.1706 18.8448L13.1744 18.9446C13.1781 19.063 13.1818 19.0593 13.0173 19.1517Z" fill="black"/>
<path d="M22.3675 14.6402C22.3637 14.6254 22.3637 14.5996 22.36 14.5589C21.4624 14.4627 18.9004 14.4036 16.5217 16.345C16.5217 16.345 15.755 12.8689 12.1646 12.8689C8.57411 12.8689 7.24265 16.345 7.24265 16.345C5.23049 14.2039 2.53765 14.3592 1.56523 14.4997C1.56523 14.5219 1.56149 14.5478 1.56149 14.57C1.53157 15.1062 1.54653 15.3613 1.63629 15.6979C1.9168 16.7518 2.78075 17.913 4.13466 19.0519C6.35251 20.9157 9.35953 22.2618 11.6372 22.4171C14.0122 22.5761 17.5166 21.2042 19.8504 19.1999C20.2169 18.8781 20.561 18.5379 20.8827 18.1755C21.1145 17.9093 21.4586 17.4507 21.4325 17.4507C21.425 17.4507 21.4325 17.4433 21.4474 17.4359C21.4586 17.4285 21.4699 17.4174 21.4624 17.41C21.4586 17.4063 21.4661 17.3952 21.4773 17.3915C21.4886 17.3878 21.496 17.3805 21.4923 17.3731C21.4886 17.3657 21.4923 17.3583 21.5073 17.3546C21.5185 17.3509 21.5222 17.3398 21.5185 17.3324C21.5147 17.325 21.5185 17.3176 21.526 17.3176C21.5334 17.3176 21.5409 17.3065 21.5409 17.2991C21.5409 17.2917 21.5484 17.2806 21.5559 17.2806C21.5634 17.2806 21.5708 17.2732 21.5708 17.2658C21.5821 17.2362 21.6008 17.2066 21.6195 17.1808C21.6756 17.0957 21.9 16.7 21.9299 16.6335C22.1431 16.1564 22.2777 15.7311 22.3413 15.3059C22.3637 15.1025 22.3824 14.729 22.3675 14.6402ZM13.0173 19.1518C12.9462 19.1925 12.8976 19.211 12.8864 19.2036C12.8752 19.1999 12.8228 19.1555 12.7667 19.1148L12.6657 19.0335L12.561 19.1444C12.3329 19.3885 12.3254 19.3996 12.2581 19.4033C12.1534 19.4144 12.1309 19.3959 12.0038 19.2073C11.9364 19.1111 11.8841 19.0298 11.8841 19.0298C11.8841 19.0298 11.8355 19.0224 11.7793 19.0187L11.6746 19.0076L11.626 19.1074L11.5774 19.2073L11.4914 19.1814C11.424 19.1592 11.3567 19.1333 11.2931 19.1037L11.1809 19.0482V18.8375L12.1758 18.8412L13.1707 18.8449L13.1744 18.9447C13.1781 19.063 13.1819 19.0593 13.0173 19.1518ZM14.8873 18.4862C14.8312 18.6969 14.7864 18.867 14.7864 18.8744C14.7452 18.8781 14.7078 18.8818 14.6667 18.8781H14.547L14.3862 19.2664C14.2964 19.4772 14.2141 19.6732 14.2029 19.7028L14.1805 19.7546L14.1019 19.6288L14.0234 19.5031V18.4788L13.9935 18.4862C13.9299 18.5009 13.4773 18.5601 13.2791 18.5786C12.46 18.66 11.6372 18.6415 10.8219 18.5268C10.691 18.5083 10.5788 18.4936 10.575 18.4972C10.5713 18.5009 10.575 18.7376 10.5825 19.0298L10.5937 19.5549L10.5302 19.651C10.4965 19.7028 10.4628 19.7472 10.4628 19.7509C10.4516 19.762 10.4142 19.7028 10.3282 19.5327C10.2347 19.3552 10.1674 19.1666 10.1188 18.9706L10.0926 18.8633L9.97664 18.8707L9.86069 18.8818L9.83077 18.745C9.81581 18.6711 9.79711 18.5564 9.78963 18.4935L9.77842 18.3752L9.68117 18.2902C9.62507 18.2421 9.56897 18.194 9.55775 18.1866C9.53905 18.1718 9.53157 18.1459 9.53157 18.1237V18.0794L9.99908 18.0831L10.4666 18.0868L10.4815 18.1348L10.4965 18.1829L10.6573 18.1903C10.7471 18.194 11.0313 18.2014 11.2857 18.2088L11.7532 18.2199L11.8729 18.035L11.9963 17.8501H12.1534L12.1496 17.4655L12.1459 17.0809L11.9402 16.9922C11.2782 16.7037 10.8892 16.3746 10.7433 15.9752C10.7134 15.8939 10.7134 15.8643 10.7059 15.4945C10.7022 15.1284 10.7022 15.0951 10.7284 15.0137C10.7807 14.8288 10.9266 14.6846 11.1136 14.6365C11.1772 14.618 11.3455 14.618 12.2282 14.618L13.2679 14.6217L13.3838 14.6772C13.5222 14.7438 13.5858 14.7919 13.6643 14.8954C13.7541 15.0137 13.7803 15.1062 13.7803 15.3318C13.7803 15.6535 13.7578 15.9308 13.7242 16.0418C13.6756 16.1934 13.6008 16.3376 13.5073 16.467C13.3203 16.7037 12.9799 16.9404 12.6695 17.0476L12.5797 17.0809L12.5835 17.4692L12.5872 17.8575L12.6695 17.8649L12.7518 17.8723L12.864 18.0387L12.9724 18.2051H13.4736C13.7504 18.2051 13.9935 18.2088 14.0159 18.2125C14.0533 18.2199 14.0608 18.2162 14.0982 18.1533L14.1431 18.0868H14.5732C14.906 18.0868 15.0033 18.0905 15.0033 18.1016C14.9921 18.0979 14.9434 18.2791 14.8873 18.4862Z" fill="white"/>
<path d="M22.3375 14.2631C22.33 14.0967 22.315 13.8637 22.3038 13.7491C22.143 12.0702 21.7092 10.6982 20.8863 9.24491C20.8527 9.18944 20.8228 9.13397 20.8041 9.08959C20.7966 9.0785 20.7928 9.06741 20.7891 9.06001C20.905 8.7161 21.38 7.27758 21.7578 5.63197C22.2702 3.39838 22.5955 0.787592 21.6007 0.0036171C21.6007 0.0036171 19.8803 -0.122115 17.5764 2.11148C16.9518 2.72904 16.3796 3.39838 15.8709 4.11209L15.7101 4.06032C14.7825 3.76078 13.8214 3.57588 12.8527 3.51302C12.561 3.49083 11.4726 3.49083 11.1173 3.51302C10.0439 3.58328 9.22107 3.74229 8.28606 4.06402C8.24866 4.07881 8.21499 4.0899 8.18133 4.101C7.65398 3.39098 7.06679 2.72534 6.41976 2.11517C4.02238 -0.129511 2.23837 -8.11202e-05 2.23837 -8.11202e-05C1.18367 0.80978 1.54272 3.5389 2.08877 5.84645C2.44781 7.37372 2.88914 8.7161 3.0537 9.20053C3.04248 9.22642 3.02752 9.256 3.01256 9.28189C2.14113 11.0273 1.66988 12.7099 1.55768 14.4998C2.53384 14.3592 5.22294 14.2002 7.23884 16.3451C7.23884 16.3451 8.5703 12.8689 12.1608 12.8689C15.7512 12.8689 16.5179 16.3451 16.5179 16.3451C18.8966 14.4036 21.4586 14.4665 22.3562 14.5589C22.3524 14.485 22.345 14.374 22.3375 14.2631ZM3.76058 7.80639C3.76058 7.80639 2.36179 4.34876 2.72084 2.37403C2.78068 2.04121 2.89288 1.74907 3.06867 1.52719C3.06867 1.52719 4.65445 1.68251 7.21266 4.49298C7.21266 4.49298 6.72645 4.72596 6.07568 5.22149C6.07568 5.22149 6.07194 5.22519 6.0682 5.22519C5.36132 5.7614 4.45623 6.61194 3.76058 7.80639ZM9.69606 12.9429C9.67362 12.9873 9.56142 13.0354 9.43425 13.0538C9.30709 13.0723 8.91813 13.0612 8.69746 13.0354C7.90457 12.9318 7.06306 12.6914 6.44969 12.3956C6.1056 12.2292 5.85875 12.0628 5.67549 11.8816L5.57077 11.7743L5.55955 11.6338C5.54085 11.3897 5.54459 11.0052 5.57451 10.8683C5.59321 10.7537 5.63435 10.6428 5.69045 10.5429C5.72037 10.5059 5.72037 10.5059 5.85501 10.5059C6.01958 10.5059 6.15796 10.5318 6.38236 10.6021C6.84239 10.7426 7.52682 11.0828 8.36086 11.5783C9.04903 11.9851 9.30709 12.1848 9.50532 12.4585C9.63996 12.6286 9.72972 12.8689 9.69606 12.9429ZM18.5077 11.7189C18.4964 11.778 18.3207 11.9555 18.1449 12.085C17.6287 12.4585 16.7049 12.8061 15.7662 12.9725C15.2314 13.0686 14.6965 13.0834 14.5357 13.0058C14.431 12.954 14.416 12.9133 14.4534 12.7802C14.532 12.5028 14.7863 12.1996 15.1827 11.9149C15.3847 11.7706 16.2038 11.2788 16.5853 11.0717C17.2136 10.7315 17.7222 10.5281 18.0663 10.48C18.1748 10.4653 18.3057 10.4616 18.3468 10.48C18.4142 10.5059 18.489 10.7019 18.5189 10.9386C18.5338 11.0643 18.5264 11.619 18.5077 11.7189ZM17.8868 5.22149L17.8793 5.21779C17.251 4.72226 16.7797 4.48929 16.7797 4.48929C19.2519 1.67881 20.7816 1.52349 20.7816 1.52349C20.9499 1.74907 21.0584 2.03752 21.1182 2.37033C21.466 4.34507 20.1159 7.80639 20.1159 7.80639C19.5511 6.81163 18.7919 5.93151 17.8868 5.22149Z" fill="#FFA409"/>
<path d="M21.122 2.37028C20.8302 2.3333 19.4501 2.3259 17.8868 5.22143L17.8793 5.21773C17.251 4.7222 16.7797 4.48923 16.7797 4.48923C19.2519 1.67875 20.7816 1.52344 20.7816 1.52344C20.9537 1.74902 21.0621 2.03746 21.122 2.37028Z" fill="#FF9300"/>
<path d="M20.1196 7.80644C19.5511 6.80798 18.7956 5.93155 17.8868 5.22154C19.4501 2.32601 20.8265 2.3334 21.122 2.37038C21.4698 4.34881 20.1196 7.80644 20.1196 7.80644Z" fill="#FF8300"/>
<path d="M21.1774 2.38145C21.159 2.37776 21.1405 2.37406 21.122 2.37036L21.1774 2.38145Z" fill="#FF8300"/>
<path d="M7.21205 4.48923C7.21205 4.48923 6.72584 4.7222 6.07507 5.21773C6.07507 5.21773 6.07133 5.22143 6.06759 5.22143C4.44814 2.3222 3.02318 2.3333 2.71649 2.37028C2.77633 2.03746 2.88854 1.74532 3.06432 1.52344C3.06806 1.52344 4.65384 1.67875 7.21205 4.48923Z" fill="#FF9300"/>
<path d="M6.07195 5.22154C5.36134 5.76145 4.45625 6.60829 3.7606 7.80644C3.7606 7.80644 2.36182 4.34881 2.72086 2.37038C3.02381 2.3334 4.45251 2.32601 6.07195 5.22154Z" fill="#FF8300"/>
<path d="M2.72018 2.37036C2.70169 2.37406 2.6795 2.37776 2.66101 2.38145L2.72018 2.37036Z" fill="#FF8300"/>
<path d="M16.3347 9.72559C16.3347 9.72559 15.1379 9.79955 15.2875 8.87505C15.4371 7.95056 16.3721 7.83962 16.6339 7.8766C16.8957 7.91358 17.9429 8.28338 17.7559 9.05995C17.5689 9.83653 17.3071 9.68861 17.1575 9.72559C17.0079 9.76257 16.3347 9.72559 16.3347 9.72559Z" fill="white"/>
<path d="M7.50815 9.72559C7.50815 9.72559 6.31134 9.79955 6.46094 8.87505C6.61054 7.95056 7.54555 7.83962 7.80735 7.8766C8.06915 7.91358 9.11636 8.28338 8.92936 9.05995C8.74236 9.83653 8.48056 9.68861 8.33096 9.72559C8.18135 9.76257 7.50815 9.72559 7.50815 9.72559Z" fill="white"/>
</g>
<defs>
<clipPath id="clip0_2340_132715">
<rect width="24" height="24" fill="white"/>
</clipPath>
</defs>
</svg>
