<svg width="24" height="24" viewBox="0 0 24 24" fill="none" xmlns="http://www.w3.org/2000/svg">
<path d="M12 24C18.6274 24 24 18.6274 24 12C24 5.37258 18.6274 0 12 0C5.37258 0 0 5.37258 0 12C0 18.6274 5.37258 24 12 24Z" fill="black"/>
<path fill-rule="evenodd" clip-rule="evenodd" d="M7.27356 6.1341C7.36157 6.04941 7.47774 6 7.59743 6H18.7707C18.9748 6 19.0769 6.24703 18.9326 6.39172L16.7254 8.60443C16.6409 8.68912 16.5248 8.73853 16.4016 8.73853H5.2283C5.02413 8.73853 4.92204 8.4915 5.06637 8.34681L7.27356 6.1341ZM7.27405 14.3956C7.35854 14.3109 7.47471 14.2615 7.59792 14.2615H18.7712C18.9753 14.2615 19.0774 14.5085 18.9331 14.6532L16.7259 16.8659C16.6414 16.9506 16.5252 17 16.402 17H5.22879C5.02462 17 4.92253 16.753 5.06686 16.6083L7.27405 14.3956ZM16.402 10.1042C16.5252 10.1042 16.6414 10.1537 16.7259 10.2384L18.9331 12.4511C19.0774 12.5957 18.9753 12.8428 18.7712 12.8428H7.59792C7.47471 12.8428 7.35854 12.7934 7.27405 12.7087L5.06686 10.496C4.92253 10.3513 5.02462 10.1042 5.22879 10.1042H16.402Z" fill="url(#paint0_linear_2340_132493)"/>
<defs>
<linearGradient id="paint0_linear_2340_132493" x1="16.0024" y1="3.7877" x2="8.2393" y2="18.6202" gradientUnits="userSpaceOnUse">
<stop stop-color="#00FFA3"/>
<stop offset="1" stop-color="#DC1FFF"/>
</linearGradient>
</defs>
</svg>
