<svg width="24" height="24" viewBox="0 0 24 24" fill="none" xmlns="http://www.w3.org/2000/svg">
<path d="M12 24C18.6274 24 24 18.6274 24 12C24 5.37258 18.6274 0 12 0C5.37258 0 0 5.37258 0 12C0 18.6274 5.37258 24 12 24Z" fill="url(#paint0_linear_2340_132507)"/>
<path d="M9.6555 6.65821C9.48233 6.63132 9.47501 6.62814 9.55653 6.61561C9.7127 6.59153 10.0815 6.62434 10.3356 6.68484C10.9289 6.8261 11.4687 7.18793 12.045 7.83051L12.1981 8.00125L12.4171 7.96598C13.3397 7.81748 14.2783 7.93549 15.0634 8.29871C15.2793 8.39864 15.6198 8.59758 15.6624 8.6487C15.6759 8.66497 15.7008 8.76985 15.7177 8.88175C15.776 9.26887 15.7468 9.56563 15.6286 9.78725C15.5643 9.90787 15.5607 9.94607 15.6039 10.0493C15.6385 10.1317 15.7347 10.1926 15.83 10.1925C16.0251 10.1922 16.2351 9.87637 16.3324 9.43687L16.371 9.26231L16.4476 9.34915C16.8676 9.82569 17.1974 10.4756 17.254 10.9382L17.2688 11.0588L17.1982 10.9491C17.0767 10.7605 16.9547 10.632 16.7984 10.5284C16.5166 10.3417 16.2187 10.2782 15.4297 10.2365C14.7171 10.1989 14.3138 10.1379 13.9139 10.0073C13.2335 9.78514 12.8905 9.48924 12.0823 8.42717C11.7233 7.95547 11.5014 7.69445 11.2807 7.48427C10.7791 7.00668 10.2863 6.75621 9.6555 6.65821Z" fill="#FF007A"/>
<path d="M15.8231 7.71143C15.841 7.39535 15.8838 7.18683 15.9699 6.99644C16.0039 6.92107 16.0359 6.85938 16.0408 6.85938C16.0457 6.85938 16.0309 6.91501 16.0079 6.98299C15.9453 7.1678 15.935 7.42053 15.9781 7.71461C16.0328 8.08772 16.0639 8.14155 16.4577 8.54461C16.6424 8.73366 16.8572 8.97208 16.9351 9.07444L17.0766 9.26058L16.9351 9.12755C16.7619 8.9649 16.3637 8.64766 16.2757 8.60229C16.2167 8.5719 16.208 8.5724 16.1716 8.60868C16.138 8.64211 16.131 8.69231 16.1263 8.92972C16.1191 9.29971 16.0687 9.53721 15.9472 9.77468C15.8815 9.90311 15.8711 9.87571 15.9306 9.73074C15.975 9.6225 15.9795 9.57491 15.9792 9.21671C15.9785 8.49705 15.8932 8.32403 15.3929 8.02763C15.2662 7.95256 15.0573 7.84426 14.9289 7.78699C14.8004 7.72972 14.6983 7.67982 14.702 7.67611C14.7162 7.66197 15.2041 7.80459 15.4005 7.88024C15.6926 7.99278 15.7408 8.00736 15.7763 7.99379C15.8 7.98471 15.8115 7.91533 15.8231 7.71143Z" fill="#FF007A"/>
<path d="M9.99189 8.9427C9.64031 8.45793 9.42281 7.71464 9.46988 7.15901L9.48446 6.98706L9.56446 7.0017C9.71477 7.02916 9.97387 7.12576 10.0952 7.19956C10.4282 7.40209 10.5723 7.66875 10.719 8.35349C10.7619 8.55403 10.8183 8.78099 10.8442 8.85785C10.886 8.98153 11.0437 9.27042 11.172 9.45805C11.2644 9.59315 11.203 9.65719 10.9988 9.63872C10.6869 9.61052 10.2644 9.31851 9.99189 8.9427Z" fill="#FF007A"/>
<path d="M15.3966 12.5507C13.7536 11.8881 13.175 11.313 13.175 10.3427C13.175 10.1999 13.1799 10.083 13.1858 10.083C13.1918 10.083 13.2554 10.1302 13.3271 10.1877C13.6603 10.4554 14.0334 10.5697 15.0662 10.7206C15.674 10.8094 16.016 10.8812 16.3315 10.986C17.3343 11.319 17.9548 11.995 18.1027 12.9158C18.1457 13.1833 18.1205 13.685 18.0508 13.9494C17.9958 14.1583 17.8278 14.5347 17.7833 14.5491C17.7709 14.5531 17.7588 14.5057 17.7557 14.4412C17.7388 14.0955 17.5643 13.7589 17.2714 13.5068C16.9383 13.2201 16.4908 12.9919 15.3966 12.5507Z" fill="#FF007A"/>
<path d="M14.2431 12.8258C14.2225 12.7032 14.1869 12.5465 14.1638 12.4776L14.1219 12.3525L14.1997 12.4401C14.3075 12.5612 14.3927 12.7162 14.4648 12.9227C14.5199 13.0803 14.5261 13.1271 14.5257 13.3832C14.5253 13.6346 14.5184 13.6873 14.4675 13.8291C14.3873 14.0528 14.2878 14.2114 14.1208 14.3816C13.8206 14.6875 13.4348 14.8569 12.878 14.9272C12.7812 14.9394 12.4991 14.9599 12.2511 14.9729C11.626 15.0054 11.2146 15.0727 10.845 15.2027C10.7919 15.2214 10.7444 15.2327 10.7396 15.2279C10.7247 15.213 10.9763 15.0627 11.1842 14.9624C11.4773 14.821 11.7691 14.7439 12.4228 14.6348C12.7457 14.581 13.0792 14.5156 13.1639 14.4896C13.9636 14.244 14.3747 13.6103 14.2431 12.8258Z" fill="#FF007A"/>
<path d="M14.9963 14.1656C14.778 13.6956 14.7279 13.2418 14.8474 12.8186C14.8602 12.7733 14.8808 12.7363 14.8932 12.7363C14.9056 12.7363 14.9571 12.7642 15.0076 12.7983C15.1082 12.8662 15.31 12.9804 15.8475 13.2739C16.5182 13.6401 16.9006 13.9237 17.1607 14.2477C17.3884 14.5315 17.5294 14.8547 17.5972 15.2488C17.6356 15.4721 17.6131 16.0092 17.5559 16.234C17.3756 16.9428 16.9565 17.4995 16.3587 17.8244C16.2711 17.872 16.1925 17.9111 16.184 17.9112C16.1754 17.9114 16.2073 17.8301 16.2549 17.7306C16.456 17.3096 16.4789 16.9001 16.3268 16.4442C16.2337 16.1651 16.0439 15.8245 15.6607 15.2489C15.2151 14.5797 15.1059 14.4016 14.9963 14.1656Z" fill="#FF007A"/>
<path d="M8.82505 16.7016C9.43477 16.186 10.1934 15.8197 10.8844 15.7072C11.1822 15.6588 11.6783 15.678 11.9541 15.7487C12.3962 15.862 12.7916 16.1158 12.9973 16.4181C13.1982 16.7137 13.2845 16.9712 13.3743 17.5441C13.4096 17.7701 13.4482 17.9971 13.4598 18.0485C13.5272 18.3454 13.6585 18.5828 13.821 18.702C14.0792 18.8913 14.5239 18.9031 14.9613 18.7322C15.0355 18.7032 15.1 18.6831 15.1045 18.6876C15.1204 18.7034 14.9001 18.8511 14.7447 18.9288C14.5357 19.0334 14.3694 19.0739 14.1485 19.0739C13.7479 19.0739 13.4153 18.8697 13.1377 18.4536C13.0832 18.3716 12.9604 18.1263 12.865 17.9084C12.572 17.239 12.4273 17.0351 12.087 16.8119C11.7909 16.6177 11.4091 16.583 11.1219 16.724C10.7445 16.9093 10.6392 17.3923 10.9095 17.6984C11.0169 17.82 11.2172 17.9249 11.381 17.9453C11.6874 17.9835 11.9507 17.75 11.9507 17.4402C11.9507 17.239 11.8735 17.1242 11.6792 17.0363C11.4137 16.9164 11.1284 17.0566 11.1297 17.3064C11.1303 17.4129 11.1766 17.4797 11.2832 17.528C11.3516 17.559 11.3532 17.5615 11.2974 17.5499C11.0539 17.4993 10.9968 17.2052 11.1926 17.01C11.4278 16.7756 11.914 16.879 12.0809 17.199C12.1511 17.3333 12.1592 17.601 12.0981 17.7626C11.9612 18.1243 11.5621 18.3145 11.1573 18.211C10.8817 18.1405 10.7694 18.0642 10.4371 17.7214C9.8597 17.1256 9.63553 17.0102 8.80305 16.88L8.64352 16.8551L8.82505 16.7016Z" fill="#FF007A"/>
<path fill-rule="evenodd" clip-rule="evenodd" d="M5.47077 4.35634C7.39916 6.70049 9.37214 9.35019 9.51975 9.55452C9.6416 9.72324 9.59575 9.87491 9.38699 9.99378C9.27088 10.0599 9.03218 10.1269 8.91267 10.1269C8.7775 10.1269 8.62524 10.0617 8.51435 9.95632C8.43595 9.88186 8.11962 9.40876 7.38935 8.27387C6.83058 7.40551 6.36296 6.68514 6.35022 6.67309C6.32073 6.64518 6.32123 6.64613 7.33238 8.45817C7.96729 9.596 8.18163 9.99826 8.18163 10.0521C8.18163 10.1615 8.15184 10.219 8.01706 10.3696C7.79238 10.6206 7.69196 10.9027 7.61945 11.4864C7.53815 12.1408 7.30961 12.6031 6.67624 13.3942C6.30549 13.8574 6.24481 13.9422 6.15127 14.1289C6.03341 14.364 6.00102 14.4956 5.98788 14.7924C5.97401 15.1063 6.00104 15.309 6.09679 15.6091C6.18058 15.8718 6.26805 16.0452 6.4917 16.3921C6.68469 16.6915 6.79584 16.914 6.79584 17.001C6.79584 17.0703 6.80903 17.0704 7.10811 17.0028C7.8238 16.8409 8.40497 16.5562 8.73183 16.2073C8.9341 15.9913 8.98158 15.8721 8.98313 15.5762C8.98413 15.3826 8.97735 15.3421 8.92512 15.2307C8.84008 15.0495 8.68526 14.8988 8.34403 14.6652C7.89695 14.3591 7.70601 14.1126 7.65324 13.7737C7.60997 13.4956 7.66018 13.2994 7.90751 12.7802C8.16352 12.2428 8.22695 12.0138 8.26987 11.4722C8.29758 11.1222 8.33597 10.9842 8.43636 10.8734C8.54106 10.7578 8.63532 10.7188 8.89444 10.6833C9.31689 10.6255 9.58588 10.516 9.807 10.3119C9.99881 10.1349 10.0791 9.96433 10.0914 9.70753L10.1007 9.5129L9.99356 9.38774C9.60538 8.93441 5.21081 4 5.18692 4C5.18181 4 5.30955 4.16037 5.47077 4.35634ZM7.01374 15.1475C7.1015 14.9919 7.05488 14.7917 6.90807 14.694C6.76934 14.6016 6.55385 14.6451 6.55385 14.7655C6.55385 14.8022 6.57416 14.829 6.61986 14.8525C6.69681 14.8922 6.70241 14.9368 6.64186 15.028C6.58053 15.1203 6.58548 15.2014 6.65582 15.2566C6.7692 15.3455 6.92967 15.2966 7.01374 15.1475Z" fill="#FF007A"/>
<path fill-rule="evenodd" clip-rule="evenodd" d="M10.3674 10.7854C10.1691 10.8464 9.97626 11.0569 9.91657 11.2777C9.88017 11.4123 9.90083 11.6486 9.95537 11.7215C10.0435 11.8393 10.1287 11.8704 10.3593 11.8688C10.811 11.8656 11.2036 11.6716 11.2492 11.4291C11.2867 11.2303 11.1142 10.9547 10.8767 10.8338C10.7541 10.7714 10.4935 10.7466 10.3674 10.7854ZM10.8953 11.1989C10.965 11.0998 10.9345 10.9927 10.8161 10.9202C10.5905 10.7823 10.2493 10.8964 10.2493 11.1099C10.2493 11.2161 10.4272 11.332 10.5903 11.332C10.6988 11.332 10.8474 11.2672 10.8953 11.1989Z" fill="#FF007A"/>
<defs>
<linearGradient id="paint0_linear_2340_132507" x1="0" y1="0" x2="24" y2="24" gradientUnits="userSpaceOnUse">
<stop stop-color="#FFF1F8"/>
<stop offset="1" stop-color="#FFDEEF"/>
</linearGradient>
</defs>
</svg>
