<svg width="24" height="24" viewBox="0 0 24 24" fill="none" xmlns="http://www.w3.org/2000/svg">
<path d="M12 24C18.6274 24 24 18.6274 24 12C24 5.37258 18.6274 0 12 0C5.37258 0 0 5.37258 0 12C0 18.6274 5.37258 24 12 24Z" fill="#26A17B"/>
<path fill-rule="evenodd" clip-rule="evenodd" d="M13.4415 13.037V13.0355C13.359 13.0415 12.9337 13.067 11.985 13.067C11.2275 13.067 10.6942 13.0445 10.5067 13.0355V13.0378C7.59073 12.9095 5.41423 12.4018 5.41423 11.7943C5.41423 11.1875 7.59073 10.6798 10.5067 10.5493V12.5323C10.6972 12.5458 11.2432 12.578 11.9977 12.578C12.903 12.578 13.3567 12.5405 13.4415 12.533V10.5508C16.3515 10.6805 18.5227 11.1883 18.5227 11.7943C18.5227 12.4018 16.3515 12.908 13.4415 13.037V13.037ZM13.4415 10.3445V8.57001H17.502V5.86401H6.44623V8.57001H10.5067V10.3438C7.20673 10.4953 4.72498 11.1493 4.72498 11.9323C4.72498 12.7153 7.20673 13.3685 10.5067 13.5208V19.2073H13.4415V13.5193C16.7362 13.3678 19.212 12.7145 19.212 11.9323C19.212 11.15 16.7362 10.4968 13.4415 10.3445" fill="white"/>
</svg>
